<?xml version="1.0" standalone="no"?>
<!DOCTYPE svg PUBLIC "-//W3C//DTD SVG 1.1//EN" "http://www.w3.org/Graphics/SVG/1.1/DTD/svg11.dtd" >
<svg>
<metadata>
Created by FontForge 20100429 at Tue Sep 10 15:36:49 2013

</metadata>
<defs>
<font id="syslab_main_fonts" horiz-adv-x="256" vert-adv-y="256" >
  <font-face 
    font-family="syslab_main_fonts"
    font-weight="400"
    font-stretch="normal"
    units-per-em="256"
    panose-1="2 0 0 0 0 0 0 0 0 0"
    ascent="204"
    descent="-52"
    x-height="125"
    cap-height="176"
    bbox="-15 -78 321 261"
    underline-thickness="12"
    underline-position="-49"
    unicode-range="U+0020-FFE5"
  />
<missing-glyph vert-adv-y="0" 
 />
    <glyph glyph-name=".notdef" vert-adv-y="0" 
 />
    <glyph glyph-name=".notdef" vert-adv-y="0" 
 />
    <glyph glyph-name="glyph1" horiz-adv-x="0" vert-adv-y="0" 
 />
    <glyph glyph-name="glyph2" horiz-adv-x="85" 
 />
    <glyph glyph-name="space" unicode=" " horiz-adv-x="78" 
 />
    <glyph glyph-name="glyph4" horiz-adv-x="78" 
d="M51 40h-18l-4 153h26zM30 -12v27h24v-27h-24z" />
    <glyph glyph-name="glyph5" horiz-adv-x="86" 
d="M35 118h-18l-4 77h26zM75 118h-18l-4 77h25z" />
    <glyph glyph-name="glyph6" horiz-adv-x="155" 
d="M92 64l11 47h-34l-10 -47h33zM155 111h-34l-10 -47h32l-2 -19h-35l-14 -58h-19l14 58h-33l-14 -58h-19l15 58h-33l2 19h35l11 47h-34l5 19h34l13 57h19l-14 -57h34l13 57h19l-14 -57h34z" />
    <glyph glyph-name="glyph7" horiz-adv-x="162" 
d="M92 82v-77q42 1 43 39q3 31 -43 38zM76 105v70q-37 -3 -39 -36q-2 -27 39 -34zM92 -13v-26h-16v26q-56 2 -66 64l19 7q8 -51 47 -53v80q-61 10 -59 54q3 52 59 56v21h16v-21q48 -4 59 -58l-20 -7q-9 45 -39 45v-73q69 -13 64 -59q-4 -54 -64 -56z" />
    <glyph glyph-name="glyph8" horiz-adv-x="249" 
d="M174 197h21l-113 -215h-21zM62 103q27 1 28 39q0 37 -27 38q-27 -1 -28 -39q2 -35 27 -38zM63 198q43 -2 45 -57q-1 -54 -47 -55q-42 3 -44 55q2 55 46 57zM193 -1q26 1 27 37q-1 38 -27 39q-28 -1 -28 -40q1 -34 28 -36zM193 92q43 -2 45 -57q-1 -52 -46 -53
q-43 3 -45 53q2 55 46 57z" />
    <glyph glyph-name="glyph9" horiz-adv-x="197" 
d="M77 3q39 0 60 28q-44 40 -63 59q-41 -16 -42 -48q1 -38 45 -39zM86 179q-26 -3 -29 -32q-1 -16 22 -38q41 13 38 41q0 29 -31 29zM203 0l-12 -15q-18 13 -40 33q-26 -33 -76 -33q-60 3 -63 55q1 46 48 63q-23 24 -22 45q4 45 48 48q49 -2 52 -46q0 -41 -45 -54
q4 -5 29 -27q19 -16 25 -22q11 19 12 54l21 -5q-4 -37 -18 -62z" />
    <glyph glyph-name="glyph10" horiz-adv-x="46" 
d="M35 117h-18l-4 77h26z" />
    <glyph glyph-name="glyph11" horiz-adv-x="93" 
d="M93 -69h-20q-54 49 -56 132q2 84 56 135h20q-57 -60 -55 -135q-1 -73 55 -132z" />
    <glyph glyph-name="glyph12" horiz-adv-x="93" 
d="M14 -65q54 56 52 128q1 74 -56 135h21q53 -50 55 -135q-2 -84 -55 -132h-17v4z" />
    <glyph glyph-name="glyph13" horiz-adv-x="114" 
d="M74 143l29 -32l-19 -12l-22 36l-22 -36l-18 14l27 30l-40 8l7 22l38 -15l-4 40h23l-4 -40l38 14l6 -21z" />
    <glyph glyph-name="glyph14" horiz-adv-x="168" 
d="M97 79v-60h-19v60h-61v20h61v60h19v-60h60v-20h-60z" />
    <glyph glyph-name="glyph15" horiz-adv-x="74" 
d="M58 19v-23q1 -35 -27 -55l-12 10q23 17 22 38h-14v30h31z" />
    <glyph glyph-name="glyph16" horiz-adv-x="158" 
d="M16 80v20h125v-20h-125z" />
    <glyph glyph-name="glyph17" horiz-adv-x="74" 
d="M25 -11v30h30v-30h-30z" />
    <glyph glyph-name="glyph18" horiz-adv-x="75" 
d="M65 197h19l-66 -212h-18z" />
    <glyph glyph-name="glyph19" horiz-adv-x="156" 
d="M81 3q48 -1 47 86q1 89 -48 88q-45 -2 -46 -88q0 -86 47 -86zM81 196q69 0 69 -107q-1 -102 -68 -104q-69 2 -70 104q2 104 69 107z" />
    <glyph glyph-name="glyph20" horiz-adv-x="156" 
d="M90 153q-8 -13 -59 -37v21q52 25 64 59h16v-208h-21v165z" />
    <glyph glyph-name="glyph21" horiz-adv-x="154" 
d="M9 -12v13q22 45 67 76q51 36 47 60q-1 39 -45 40q-35 -1 -46 -44l-20 12q19 52 71 51q59 -2 62 -56q5 -34 -53 -75q-43 -31 -57 -60h111v-17h-137z" />
    <glyph glyph-name="glyph22" horiz-adv-x="155" 
d="M100 99q48 -9 50 -53q-3 -58 -69 -61q-58 1 -71 57l21 6q8 -45 48 -45q48 1 49 45q-1 37 -50 37h-21v18h14q48 0 49 38q0 36 -39 36q-39 1 -46 -43l-21 7q13 55 66 55q60 -1 62 -55q-2 -37 -36 -47v0z" />
    <glyph glyph-name="glyph23" horiz-adv-x="157" 
d="M30 55h72l6 116q0 -4 -5 -11zM150 36h-28v-49h-20v49h-98v13l102 147h16v-141h28v-19z" />
    <glyph glyph-name="glyph24" horiz-adv-x="156" 
d="M36 103q19 23 50 23q61 -3 65 -68q-2 -70 -68 -73q-58 0 -72 58l20 6q8 -46 50 -46q47 2 49 53q-2 49 -48 51q-31 0 -48 -27l-14 3l12 109h109v-19h-91l-14 -127v57z" />
    <glyph glyph-name="glyph25" horiz-adv-x="157" 
d="M32 61q2 -56 50 -58q45 1 47 51q-2 49 -45 51q-48 -3 -52 -44zM147 146l-20 -7q-9 39 -42 38q-54 0 -54 -78q13 25 56 25q59 -4 63 -69q-4 -66 -66 -70q-74 -1 -73 97q0 114 75 114q46 -2 61 -50z" />
    <glyph glyph-name="glyph26" horiz-adv-x="156" 
d="M143 170q-63 -91 -74 -183h-22q12 90 75 186h-109v19h136v0z" />
    <glyph glyph-name="glyph27" horiz-adv-x="159" 
d="M82 86q-46 -1 -48 -43q2 -40 49 -40q47 1 49 38q-3 43 -50 45zM82 178q-38 -2 -40 -38q1 -37 41 -38q38 2 40 38q-2 36 -41 38zM46 95q-24 11 -26 44q4 53 62 57q57 -4 63 -57q-2 -35 -25 -45q30 -10 33 -53q-2 -54 -70 -56q-69 2 -71 58q4 43 34 52z" />
    <glyph glyph-name="glyph28" horiz-adv-x="157" 
d="M130 117q-2 58 -50 60q-46 -1 -47 -52q2 -50 44 -52q48 3 53 44zM15 33l19 7q11 -38 43 -37q54 0 54 77q-13 -25 -57 -25q-58 4 -62 69q4 68 66 72q73 1 73 -100q0 -111 -76 -111q-46 2 -60 48z" />
    <glyph glyph-name="glyph29" horiz-adv-x="73" 
d="M25 104v32h30v-32h-30zM25 -7v30h30v-30h-30z" />
    <glyph glyph-name="glyph30" horiz-adv-x="74" 
d="M27 104v32h31v-32h-31zM58 22v-23q1 -36 -28 -55l-11 10q23 17 22 38h-14v30h31z" />
    <glyph glyph-name="glyph31" horiz-adv-x="167" 
d="M158 18v-23l-142 86v18l142 85v-24l-120 -70z" />
    <glyph glyph-name="glyph32" horiz-adv-x="164" 
d="M16 49v20h138v-20h-138zM16 110v19h138v-19h-138z" />
    <glyph glyph-name="glyph33" horiz-adv-x="166" 
d="M15 184l142 -85v-18l-142 -86v23l121 72l-121 70v24z" />
    <glyph glyph-name="glyph34" horiz-adv-x="155" 
d="M66 -11v26h24v-26h-24zM88 51v-12h-20v13q0 31 28 49q32 21 30 42q-3 33 -40 36q-42 1 -52 -46l-22 7q15 59 76 57q56 -3 60 -54q3 -32 -39 -58q-22 -12 -21 -34z" />
    <glyph glyph-name="glyph35" horiz-adv-x="285" 
d="M146 121q-49 -3 -51 -65q0 -42 32 -42q38 4 49 51q2 11 2 19q1 34 -32 37zM185 137h20q-10 -74 -12 -90q-6 -36 14 -33q40 6 44 67q-4 93 -105 97q-103 -9 -111 -113q5 -103 112 -108q60 0 97 35l10 -12q-47 -44 -109 -42q-127 5 -132 126q9 125 134 133q119 -4 125 -114
q-4 -81 -69 -86q-35 1 -34 11q-4 -11 -47 -11q-48 1 -49 61q5 77 73 82q33 -1 40 -27h-4q2 9 3 24z" />
    <glyph glyph-name="glyph36" horiz-adv-x="188" 
d="M58 71h81l-42 100h3zM174 -12l-27 64h-96l-28 -64h-23l88 206h20l90 -206h-24z" />
    <glyph glyph-name="glyph37" horiz-adv-x="187" 
d="M100 85h-59v-79h63q51 0 51 42q-3 36 -55 37zM97 174h-56v-70h56q48 0 49 38q-1 31 -49 32zM107 -12h-86v205h81q62 -3 66 -51q-1 -43 -28 -47q35 -6 37 -50q-1 -56 -70 -57z" />
    <glyph glyph-name="glyph38" horiz-adv-x="203" 
d="M175 62l23 -7q-18 -69 -91 -70q-89 6 -93 103q5 103 96 108q60 -2 84 -63l-23 -6q-17 47 -63 49q-67 -6 -72 -86q4 -81 70 -87q56 0 69 59z" />
    <glyph glyph-name="glyph39" horiz-adv-x="202" 
d="M96 174h-53v-169h52q77 0 77 85q-2 81 -76 84zM95 -12h-74v205h76q93 -3 96 -103q2 -104 -98 -102z" />
    <glyph glyph-name="glyph40" horiz-adv-x="187" 
d="M44 5h133v-17h-154v205h149v-19h-128v-71h121v-19h-121v-79z" />
    <glyph glyph-name="glyph41" horiz-adv-x="171" 
d="M164 174h-120v-71h105v-19h-105v-96h-22v205h142v-19z" />
    <glyph glyph-name="glyph42" horiz-adv-x="218" 
d="M114 97h91v-77q-24 -34 -88 -35q-98 5 -102 104q4 102 98 107q70 -1 93 -63l-23 -7q-15 50 -71 50q-71 -5 -75 -87q4 -80 78 -86q51 1 69 25v50h-70v19z" />
    <glyph glyph-name="glyph43" horiz-adv-x="201" 
d="M164 193h21v-205h-21v96h-120v-96h-21v205h21v-90h120v90z" />
    <glyph glyph-name="glyph44" horiz-adv-x="65" 
d="M25 193h21v-205h-21v205z" />
    <glyph glyph-name="glyph45" horiz-adv-x="140" 
d="M125 49q2 -66 -58 -64q-54 -1 -58 62l21 5q0 -50 38 -49q37 -1 36 45v145h21l-6 -144h6z" />
    <glyph glyph-name="glyph46" horiz-adv-x="186" 
d="M167 -12l-79 104l-46 -43v-61h-22v205h22v-117l120 117h29l-90 -87l94 -118h-28z" />
    <glyph glyph-name="glyph47" horiz-adv-x="156" 
d="M20 -13v206h21v-188h111v-18h-132z" />
    <glyph glyph-name="glyph48" horiz-adv-x="235" 
d="M189 193h31v-206h-21v188h3l-73 -187h-17l-73 187h3v-188h-20v206h30l70 -183h-3z" />
    <glyph glyph-name="glyph49" horiz-adv-x="202" 
d="M44 176v-189h-22v206h29l118 -190h-4v190h21v-206h-29l-117 189h4z" />
    <glyph glyph-name="glyph50" horiz-adv-x="219" 
d="M112 176q-72 -7 -77 -87q4 -81 76 -86q74 4 78 86q-4 81 -77 87zM112 -15q-95 5 -99 103q5 103 101 108q91 -6 98 -107q-4 -100 -100 -104z" />
    <glyph glyph-name="glyph51" horiz-adv-x="187" 
d="M105 174h-62v-86h62q53 0 53 45q-3 39 -53 41zM109 68h-66v-80h-21v205h89q64 -4 70 -61q-2 -62 -72 -64z" />
    <glyph glyph-name="glyph52" horiz-adv-x="218" 
d="M109 4q76 3 78 86q-5 80 -76 87q-73 -6 -78 -87q4 -81 76 -86zM139 -10l45 -45l-23 -8l-46 49h-6q-94 5 -98 103q4 103 101 107q92 -7 98 -106q-2 -84 -71 -100z" />
    <glyph glyph-name="glyph53" horiz-adv-x="202" 
d="M44 174v-77h69q54 -1 53 39q0 38 -53 38h-69zM208 -12h-29l-74 90h-61v-90h-21v205h95q67 -2 70 -58q0 -54 -58 -57z" />
    <glyph glyph-name="glyph54" horiz-adv-x="186" 
d="M151 135q-8 40 -55 41q-48 -2 -53 -36q-2 -27 58 -37q81 -10 78 -61q-5 -54 -77 -57q-74 -2 -90 65l23 8q9 -55 66 -55q52 2 56 41q3 31 -61 40q-77 11 -75 56q3 54 74 56q67 -1 80 -58l-24 -7v4z" />
    <glyph glyph-name="glyph55" horiz-adv-x="172" 
d="M172 174h-72v-186h-21v186h-72v19h165v-19z" />
    <glyph glyph-name="glyph56" horiz-adv-x="204" 
d="M187 193v-119q1 -90 -83 -89q-82 -1 -81 89v119h21v-119q-1 -71 60 -71q63 0 62 71v119h21z" />
    <glyph glyph-name="glyph57" horiz-adv-x="190" 
d="M109 -12h-19l-87 205h23l74 -183l73 183h24z" />
    <glyph glyph-name="glyph58" horiz-adv-x="265" 
d="M247 193h23l-63 -205h-19l-51 176q0 2 -1 6q-1 6 2 3q1 2 0 -4q-1 -2 -1 -3l-54 -178h-19l-60 205h22l47 -174q2 -4 3 -14q1 -2 1 -1h-5l2 11q1 2 1 3l51 175h22l48 -174q3 -12 -2 12q0 -28 1 -26q1 10 3 14z" />
    <glyph glyph-name="glyph59" horiz-adv-x="188" 
d="M172 -12l-71 92l-72 -92h-26l85 105l-76 100h26l63 -87l64 87h27l-78 -100l84 -105h-26z" />
    <glyph glyph-name="glyph60" horiz-adv-x="187" 
d="M197 193l-88 -118v-87h-21v87l-86 118h25l71 -101l74 101h25z" />
    <glyph glyph-name="glyph61" horiz-adv-x="171" 
d="M35 5h136v-17h-165v12l131 174h-120v19h150v-14z" />
    <glyph glyph-name="glyph62" horiz-adv-x="77" 
d="M19 -66v260h60v-16h-41v-228h41v-16h-60z" />
    <glyph glyph-name="glyph63" horiz-adv-x="76" 
d="M0 197h19l65 -212h-19z" />
    <glyph glyph-name="glyph64" horiz-adv-x="77" 
d="M45 -50v228h-41v16h60v-260h-60v16h41z" />
    <glyph glyph-name="glyph65" horiz-adv-x="132" 
d="M113 83l-43 94h3l-43 -94h-23l56 116h16l55 -116h-21z" />
    <glyph glyph-name="glyph66" horiz-adv-x="166" 
d="M172 -34v-17h-172v17h172z" />
    <glyph glyph-name="glyph67" horiz-adv-x="89" 
d="M38 201q7 -7 16 -22q15 -25 22 -34h-19q-17 21 -45 52h26v4z" />
    <glyph glyph-name="glyph68" horiz-adv-x="156" 
d="M123 49v18q-2 -4 -46 -9q-48 -4 -45 -31q-2 -25 36 -24q51 2 55 46zM35 89l-19 7q10 48 67 47q63 2 60 -55v-65q-1 -20 12 -34h-23q-10 11 -10 18q-11 -21 -61 -22q-48 1 -49 42q0 43 56 49q48 4 54 14q3 37 -39 35q-41 1 -48 -36z" />
    <glyph glyph-name="glyph69" horiz-adv-x="155" 
d="M39 78v-23q2 -51 45 -52q45 0 45 59q-2 61 -46 63q-40 -7 -44 -47zM39 -12h-21v206h21v-72q9 20 47 21q62 -3 64 -81q-2 -74 -61 -77q-41 0 -50 20v-17z" />
    <glyph glyph-name="glyph70" horiz-adv-x="141" 
d="M120 92q-9 30 -40 32q-46 -1 -47 -61q1 -58 47 -60q37 1 42 42l21 -6q-10 -55 -64 -54q-67 2 -68 78q3 77 67 80q49 -2 64 -49l-22 -6v4z" />
    <glyph glyph-name="glyph71" horiz-adv-x="155" 
d="M121 55v23q-5 39 -45 47q-44 -2 -46 -63q0 -59 46 -59q43 1 45 52zM141 -12h-20v18q-10 -21 -51 -21q-58 3 -60 77q2 78 63 81q37 -1 48 -23v74h20v-206z" />
    <glyph glyph-name="glyph72" horiz-adv-x="156" 
d="M33 73h96q-1 50 -47 51q-46 -3 -49 -51zM130 39l21 -6q-14 -48 -68 -48q-71 3 -73 77q3 77 72 81q67 -2 69 -82v-6h-119q2 -50 50 -52q40 0 48 36z" />
    <glyph glyph-name="glyph73" horiz-adv-x="74" 
d="M47 155v-15h33v-19h-33v-132h-21v132h-26v19h26v16q-1 41 36 40q17 -1 31 -7l-6 -16q-10 5 -20 5q-22 2 -20 -23z" />
    <glyph glyph-name="glyph74" horiz-adv-x="156" 
d="M124 59v22q-4 40 -45 44q-47 -2 -49 -59q1 -57 47 -58q46 1 47 51zM144 140v-130q3 -75 -71 -72q-37 1 -59 25l12 12q18 -18 47 -19q53 -1 51 47v6q-7 -16 -51 -16q-63 2 -64 73q3 73 66 77q38 -1 49 -20v17h20z" />
    <glyph glyph-name="glyph75" horiz-adv-x="155" 
d="M142 84v-96h-20v94q1 44 -37 43q-43 -2 -46 -51v-86h-21v205h21v-73q10 21 49 23q55 1 54 -59z" />
    <glyph glyph-name="glyph76" horiz-adv-x="51" 
d="M18 140h21v-152h-21v152zM18 194h21v-28h-21v28z" />
    <glyph glyph-name="glyph77" horiz-adv-x="55" 
d="M22 194h21v-28h-21v28zM43 140v-166q1 -37 -31 -36q-14 0 -26 8l3 13q11 -4 18 -4q16 -2 15 20v165h21z" />
    <glyph glyph-name="glyph78" horiz-adv-x="140" 
d="M122 -12l-55 79l-28 -25v-54h-21v205h21v-127l76 74h29l-64 -59l68 -93h-26z" />
    <glyph glyph-name="glyph79" horiz-adv-x="50" 
d="M18 193h21v-205h-21v205z" />
    <glyph glyph-name="glyph80" horiz-adv-x="232" 
d="M221 84v-96h-21v94q1 45 -32 43t-39 -44v-93h-20v94q1 45 -32 43q-36 -1 -38 -45v-92h-21v152h21v-15q6 17 41 18q42 0 46 -25q7 24 45 25q51 1 50 -59z" />
    <glyph glyph-name="glyph81" horiz-adv-x="156" 
d="M143 84v-96h-20v94q1 44 -38 43q-39 -3 -46 -44v-93h-20v151h20v-21q12 24 50 25q55 1 54 -59z" />
    <glyph glyph-name="glyph82" horiz-adv-x="156" 
d="M81 124q-49 -2 -50 -63q2 -56 50 -59q47 1 49 60q-3 58 -49 62zM80 -15q-68 4 -71 76q3 80 74 82q65 -3 68 -80q-1 -77 -71 -78z" />
    <glyph glyph-name="glyph83" horiz-adv-x="155" 
d="M39 77v-23q1 -51 45 -51q45 0 45 58q-1 61 -48 63q-38 -3 -42 -47zM39 -63h-21v202h21v-14q7 18 46 18q62 -4 65 -81q-2 -74 -60 -77q-42 0 -51 19v-67z" />
    <glyph glyph-name="glyph84" horiz-adv-x="155" 
d="M121 54v23q-4 43 -42 47q-48 -2 -49 -63q0 -58 45 -58q44 1 46 51zM141 -63h-20v67q-9 -19 -52 -19q-57 2 -59 77q3 78 65 81q37 0 46 -20v16h20v-202z" />
    <glyph glyph-name="glyph85" horiz-adv-x="93" 
d="M91 117q-6 5 -19 5q-32 -3 -34 -52v-82h-20v151h20v-27h-4q10 29 40 31q16 1 31 -10l-14 -28v12z" />
    <glyph glyph-name="glyph86" horiz-adv-x="145" 
d="M110 97q-6 27 -37 27q-36 0 -37 -25q-3 -19 44 -26q59 -9 57 -44q-2 -43 -62 -44q-52 -1 -66 48l20 6q7 -37 46 -36q39 0 41 25q3 20 -41 27q-62 9 -59 44q3 42 55 44q50 0 59 -43l-20 -7v4z" />
    <glyph glyph-name="glyph87" horiz-adv-x="77" 
d="M77 3l3 -10q-9 -8 -24 -8q-31 -1 -30 33v103h-23v18h23v42l21 11v-53h30v-18h-30v-103q-1 -18 14 -16q8 0 16 1z" />
    <glyph glyph-name="glyph88" horiz-adv-x="155" 
d="M122 139h20v-151h-20v19q-11 -20 -49 -22q-56 -1 -55 57v98h20v-96q-1 -42 38 -41q41 2 46 45v91z" />
    <glyph glyph-name="glyph89" horiz-adv-x="140" 
d="M123 140h22l-62 -152h-20l-60 152h22l50 -135h-3z" />
    <glyph glyph-name="glyph90" horiz-adv-x="202" 
d="M156 -12h-20l-32 133h3l-35 -133h-19l-52 152h21l42 -135h-3l35 135h19l33 -135h-3l43 135h21z" />
    <glyph glyph-name="glyph91" horiz-adv-x="140" 
d="M89 64l61 -76h-26l-47 64l-50 -64h-25l62 76l-56 76h25l44 -64l44 64h25z" />
    <glyph glyph-name="glyph92" horiz-adv-x="140" 
d="M125 140h23l-68 -158q-18 -48 -41 -44q-17 0 -27 8l3 13q10 -4 20 -3q15 -3 28 35q1 1 2 3t2 3l-63 143h23l49 -122z" />
    <glyph glyph-name="glyph93" horiz-adv-x="140" 
d="M5 -11v12l101 120h-94v19h124v-12l-101 -123h105v-16h-135z" />
    <glyph glyph-name="glyph94" horiz-adv-x="93" 
d="M35 61l-4 4q27 -6 27 -34v-64q0 -20 35 -20v-16q-54 -1 -53 35v64q0 25 -33 26v14q34 1 33 26v66q-2 37 53 36v-16q-35 0 -35 -20v-67q0 -28 -23 -34z" />
    <glyph glyph-name="glyph95" horiz-adv-x="64" 
d="M26 197h18v-263h-18v263z" />
    <glyph glyph-name="glyph96" horiz-adv-x="93" 
d="M66 61q-25 6 -25 34v67q0 20 -35 20v16q55 1 53 -36v-66q-1 -25 33 -26v-14q-34 -1 -33 -26v-64q1 -36 -53 -35v16q35 0 35 20v64q0 28 25 33v-1v-2z" />
    <glyph glyph-name="glyph97" horiz-adv-x="164" 
d="M12 92q19 15 40 15q20 0 38 -9q21 -8 31 -8q19 1 37 18v-23q-15 -15 -37 -15q-15 -1 -38 10q-14 7 -31 7q-21 0 -40 -19v23v1z" />
    <glyph glyph-name="glyph98" 
d="M184 148l16 -17l-14 -13q12 -14 12 -39q0 -24 -12 -39l14 -14l-16 -15l-14 14q-15 -13 -38 -13t-38 13l-14 -14l-16 15l14 14q-12 15 -12 39q0 25 12 39l-14 13l16 17l15 -15q15 12 37 12q23 0 37 -12zM87 79q5 -42 45 -46q40 4 45 46q-5 41 -45 46q-40 -5 -45 -46z" />
    <glyph glyph-name="glyph99" 
d="M181 162h-21q0 34 -30 33q-26 -1 -27 -22q-2 -11 23 -24l38 -21q31 -16 30 -42q0 -29 -27 -44q15 -13 14 -27q-3 -38 -49 -42q-53 1 -54 52h21q0 -33 29 -33q34 2 32 23q-1 9 -19 20l-51 32q-22 15 -22 38q1 27 26 40q-13 9 -13 27q3 41 49 43q49 -2 51 -53zM160 106
l-48 28q-22 -9 -24 -28q0 -12 14 -23l46 -29q25 14 26 27q0 18 -14 25z" />
    <glyph glyph-name="glyph100" 
d="M121 181v-30h-26v30h26zM167 181v-30h-27v30h27z" />
    <glyph glyph-name="glyph101" 
d="M55 180q-19 -3 -22 -23q3 -21 22 -24q19 2 22 24q-3 21 -22 23zM96 157q-3 -38 -41 -41q-37 3 -40 41q3 37 40 40q38 -3 41 -40z" />
    <glyph glyph-name="glyph102" 
d="M201 121v-20h-60v-51h-20v51h-60v20h60v51h20v-51h60zM61 18v20h140v-20h-140z" />
    <glyph glyph-name="glyph103" 
d="M115 74v32h31v-32h-31z" />
    <glyph glyph-name="glyph104" 
d="M197 141l-52 -51l52 -52l-14 -14l-51 52l-52 -52l-13 14l51 52l-51 51l13 14l52 -52l51 52z" />
    <glyph glyph-name="glyph105" 
d="M176 55v23q-4 40 -44 47q-44 -2 -46 -63q0 -59 45 -59q43 1 45 52zM197 -12h-21v17q-9 -20 -50 -20q-59 3 -61 77q2 78 64 81q36 -1 47 -23v20h21v-152zM134 152l-40 42h31l33 -42h-24z" />
    <glyph glyph-name="glyph106" 
d="M176 55v23q-4 40 -44 47q-44 -2 -46 -63q0 -59 45 -59q43 1 45 52zM197 -12h-21v17q-9 -20 -50 -20q-59 3 -61 77q2 78 64 81q36 -1 47 -23v20h21v-152zM138 194h32l-41 -41h-23z" />
    <glyph glyph-name="glyph107" 
d="M83 73h96q-1 50 -47 51q-46 -3 -49 -51zM180 39l21 -6q-14 -48 -68 -48q-70 3 -72 77q3 78 71 81q67 -2 69 -82v-6h-119q2 -50 50 -52q40 0 48 36zM134 152l-40 42h31l33 -42h-24z" />
    <glyph glyph-name="glyph108" 
d="M83 73h96q-1 50 -47 51q-46 -3 -49 -51zM180 39l21 -6q-14 -48 -68 -48q-70 3 -72 77q3 78 71 81q67 -2 69 -82v-6h-119q2 -50 50 -52q40 0 48 36zM138 194h32l-41 -41h-23z" />
    <glyph glyph-name="glyph109" 
d="M83 73h96q-1 50 -47 51q-46 -3 -49 -51zM180 39l21 -6q-14 -48 -68 -48q-70 3 -72 77q3 78 71 81q67 -2 69 -82v-6h-119q2 -50 50 -52q40 0 48 36zM113 151h-22l29 43h24l29 -43h-23l-18 23z" />
    <glyph glyph-name="igrave" unicode="&#xec;" 
d="M125 140h20v-152h-20v152zM138 152l-40 42h31l33 -42h-24z" />
    <glyph glyph-name="iacute" unicode="&#xed;" 
d="M124 140h20v-152h-20v152zM141 194h32l-41 -41h-23z" />
    <glyph glyph-name="glyph112" 
d="M131 124q-49 -2 -50 -63q2 -56 50 -59q47 1 49 60q-2 59 -49 62zM130 -15q-67 4 -70 76q3 80 73 82q66 -4 69 -80q-1 -77 -72 -78zM134 152l-40 42h31l33 -42h-24z" />
    <glyph glyph-name="glyph113" 
d="M131 124q-49 -2 -50 -63q2 -56 50 -59q47 1 49 60q-2 59 -49 62zM130 -15q-67 4 -70 76q3 80 73 82q66 -4 69 -80q-1 -77 -72 -78zM138 194h32l-41 -41h-23z" />
    <glyph glyph-name="glyph114" 
d="M56 80v20h150v-20h-150zM119 129v28h24v-28h-24zM119 22v29h24v-29h-24z" />
    <glyph glyph-name="glyph115" 
d="M173 139h20v-151h-20v19q-11 -20 -49 -22q-56 -1 -55 57v98h20v-96q-1 -42 38 -41q41 2 46 45v91zM134 152l-40 42h31l33 -42h-24z" />
    <glyph glyph-name="glyph116" 
d="M173 139h20v-151h-20v19q-11 -20 -49 -22q-56 -1 -55 57v98h20v-96q-1 -42 38 -41q41 2 46 45v91zM138 194h32l-41 -41h-23z" />
    <glyph glyph-name="glyph117" 
d="M173 139h20v-151h-20v19q-11 -20 -49 -22q-56 -1 -55 57v98h20v-96q-1 -42 38 -41q41 2 46 45v91zM121 179v-29h-26v29h26zM167 179v-29h-27v29h27z" />
    <glyph glyph-name="amacron" unicode="&#x101;" 
d="M176 55v23q-4 40 -44 47q-44 -2 -46 -63q0 -59 45 -59q43 1 45 52zM197 -12h-21v17q-9 -20 -50 -20q-59 3 -61 77q2 78 64 81q36 -1 47 -23v20h21v-152zM174 178v-19h-82v19h82z" />
    <glyph glyph-name="emacron" unicode="&#x113;" 
d="M83 73h96q-1 50 -47 51q-46 -3 -49 -51zM180 39l21 -6q-14 -48 -68 -48q-70 3 -72 77q3 78 71 81q67 -2 69 -82v-6h-119q2 -50 50 -52q40 0 48 36zM174 178v-19h-82v19h82z" />
    <glyph glyph-name="ecaron" unicode="&#x11b;" 
d="M83 73h96q-1 50 -47 51q-46 -3 -49 -51zM180 39l21 -6q-14 -48 -68 -48q-70 3 -72 77q3 78 71 81q67 -2 69 -82v-6h-119q2 -50 50 -52q40 0 48 36zM112 194l19 -23l18 23h23l-29 -43h-24l-29 43h22z" />
    <glyph glyph-name="imacron" unicode="&#x12b;" 
d="M121 140h20v-152h-20v152zM174 178v-19h-82v19h82z" />
    <glyph glyph-name="nacute" unicode="&#x144;" 
d="M193 84v-96h-20v94q0 43 -38 43q-39 -3 -46 -44v-93h-20v151h20v-20q11 22 49 24q56 1 55 -59zM138 194h32l-41 -41h-23z" />
    <glyph glyph-name="ncaron" unicode="&#x148;" 
d="M112 194l19 -23l18 23h23l-29 -43h-24l-29 43h22zM193 84v-96h-20v94q0 43 -38 43q-39 -3 -46 -44v-93h-20v151h20v-20q11 22 49 24q56 1 55 -59z" />
    <glyph glyph-name="omacron" unicode="&#x14d;" 
d="M131 124q-49 -2 -50 -63q2 -56 50 -59q47 1 49 60q-2 59 -49 62zM130 -15q-67 4 -70 76q3 80 73 82q66 -4 69 -80q-1 -77 -72 -78zM174 178v-19h-82v19h82z" />
    <glyph glyph-name="umacron" unicode="&#x16b;" 
d="M173 139h20v-151h-20v19q-11 -20 -49 -22q-56 -1 -55 57v98h20v-96q-1 -42 38 -41q41 2 46 45v91zM174 178v-19h-82v19h82z" />
    <glyph glyph-name="uni01CE" unicode="&#x1ce;" 
d="M176 55v23q-4 40 -44 47q-44 -2 -46 -63q0 -59 45 -59q43 1 45 52zM197 -12h-21v17q-9 -20 -50 -20q-59 3 -61 77q2 78 64 81q36 -1 47 -23v20h21v-152zM112 194l19 -23l18 23h23l-29 -43h-24l-29 43h22z" />
    <glyph glyph-name="uni01D0" unicode="&#x1d0;" 
d="M124 140h20v-152h-20v152zM115 194l19 -23l18 23h23l-29 -43h-24l-29 43h22z" />
    <glyph glyph-name="uni01D2" unicode="&#x1d2;" 
d="M131 124q-49 -2 -50 -63q2 -56 50 -59q47 1 49 60q-2 59 -49 62zM130 -15q-67 4 -70 76q3 80 73 82q66 -4 69 -80q-1 -77 -72 -78zM112 194l19 -23l18 23h23l-29 -43h-24l-29 43h22z" />
    <glyph glyph-name="uni01D4" unicode="&#x1d4;" 
d="M173 139h20v-151h-20v19q-11 -20 -49 -22q-56 -1 -55 57v98h20v-96q-1 -42 38 -41q41 2 46 45v91zM112 194l19 -23l18 23h23l-29 -43h-24l-29 43h22z" />
    <glyph glyph-name="uni01D6" unicode="&#x1d6;" 
d="M173 139h20v-151h-20v19q-11 -20 -49 -22q-56 -1 -55 57v98h20v-96q-1 -42 38 -41q41 2 46 45v91zM121 179v-29h-26v29h26zM167 179v-29h-27v29h27zM171 209v-18h-82v18h82z" />
    <glyph glyph-name="uni01D8" unicode="&#x1d8;" 
d="M173 139h20v-151h-20v19q-11 -20 -49 -22q-56 -1 -55 57v98h20v-96q-1 -42 38 -41q41 2 46 45v91zM121 179v-29h-26v29h26zM167 179v-29h-27v29h27zM138 222h31l-40 -41h-23z" />
    <glyph glyph-name="uni01DA" unicode="&#x1da;" 
d="M173 139h20v-151h-20v19q-11 -20 -49 -22q-56 -1 -55 57v98h20v-96q-1 -42 38 -41q41 2 46 45v91zM121 179v-29h-26v29h26zM167 179v-29h-27v29h27zM112 218l19 -21l18 21h23l-29 -41h-24l-29 41h22z" />
    <glyph glyph-name="uni01DC" unicode="&#x1dc;" 
d="M173 139h20v-151h-20v19q-11 -20 -49 -22q-56 -1 -55 57v98h20v-96q-1 -42 38 -41q41 2 46 45v91zM121 179v-29h-26v29h26zM167 179v-29h-27v29h27zM134 182l-41 41h32l32 -41h-23z" />
    <glyph glyph-name="uni0251" unicode="&#x251;" 
d="M176 55v23q-4 40 -44 47q-44 -2 -46 -63q0 -59 45 -59q43 1 45 52zM197 -12h-21v17q-9 -20 -50 -20q-59 3 -61 77q2 78 64 81q36 -1 47 -23v20h21v-152z" />
    <glyph glyph-name="uni0261" unicode="&#x261;" 
d="M178 59v22q-4 41 -44 44q-48 -2 -50 -59q1 -57 48 -58q45 2 46 51zM198 140v-130q3 -75 -71 -72q-36 1 -58 25l11 12q18 -18 47 -19q53 -1 51 47v6q-7 -16 -50 -16q-63 1 -64 73q3 74 66 77q39 -1 48 -19v16h20z" />
    <glyph glyph-name="caron" unicode="&#x2c7;" 
d="M115 187l19 -21l18 21h23l-29 -43h-24l-29 43h22z" />
    <glyph glyph-name="uni02C9" unicode="&#x2c9;" 
d="M171 178v-20h-82v20h82z" />
    <glyph glyph-name="uni02CA" unicode="&#x2ca;" 
d="M165 187l-39 -42h-23l25 42h37z" />
    <glyph glyph-name="uni02CB" unicode="&#x2cb;" 
d="M103 187h36l26 -42h-23z" />
    <glyph glyph-name="dotaccent" unicode="&#x2d9;" 
d="M146 172v-32h-30v32h30z" />
    <glyph glyph-name="Alpha" unicode="&#x391;" 
d="M75 -3h-31l71 184h31l74 -184h-31l-22 55h-72zM158 78l-28 69l-26 -69h54z" />
    <glyph glyph-name="Beta" unicode="&#x392;" 
d="M61 181h73q40 0 53 -33q11 -44 -25 -58l6 5q37 -11 31 -56q-11 -40 -53 -42h-85v184zM88 156v-51h46q24 1 27 26q-1 24 -26 25h-47zM88 79v-57h50q30 1 34 28q-2 27 -32 29h-52z" />
    <glyph glyph-name="Gamma" unicode="&#x393;" 
d="M69 181h124v-25h-97v-159h-27v184z" />
    <glyph glyph-name="Delta" unicode="&#x394;" 
d="M130 188l93 -191h-180zM130 124l-43 -101h91z" />
    <glyph glyph-name="Epsilon" unicode="&#x395;" 
d="M170 104v-25h-73v-57h94v-25h-120v184h117v-25h-91v-52h73z" />
    <glyph glyph-name="Zeta" unicode="&#x396;" 
d="M71 181h136l-99 -158h97v-26h-147l100 158h-87v26z" />
    <glyph glyph-name="Eta" unicode="&#x397;" 
d="M172 108v73h27v-184h-27v85h-82v-85h-27v184h27v-73h82z" />
    <glyph glyph-name="Theta" unicode="&#x398;" 
d="M84 105h94v-26h-94v26zM131 164q-56 -1 -58 -72q2 -68 58 -72q57 3 58 73q-3 69 -58 71zM132 190q81 -3 85 -98q-3 -93 -86 -96q-83 3 -86 95q3 97 87 99z" />
    <glyph glyph-name="Iota" unicode="&#x399;" 
d="M118 181h26v-184h-26v184z" />
    <glyph glyph-name="Kappa" unicode="&#x39a;" 
d="M161 181h36q-35 -57 -87 -90q3 0 1 3q51 -36 93 -97h-39q-29 46 -77 81v-81h-27v184h27v-73q50 34 73 73z" />
    <glyph glyph-name="Lambda" unicode="&#x39b;" 
d="M117 181h31l74 -184h-33l-58 149l-56 -149h-33z" />
    <glyph glyph-name="Mu" unicode="&#x39c;" 
d="M47 181h36l49 -97l49 97h34v-184h-27v139l-51 -102h-12l-51 105v-142h-27v184z" />
    <glyph glyph-name="Nu" unicode="&#x39d;" 
d="M62 181h25l86 -119v119h27v-184h-16l-96 135v-135h-26v184z" />
    <glyph glyph-name="Xi" unicode="&#x39e;" 
d="M65 182h143l-81 -77h80l-83 -83h81v-25h-144l82 82h-81l80 78h-77v25z" />
    <glyph glyph-name="Omicron" unicode="&#x39f;" 
d="M131 163q-56 -1 -58 -72q2 -67 58 -71q57 2 58 72q-3 69 -58 71zM132 189q83 -3 85 -98q-3 -93 -86 -95q-83 3 -86 95q3 96 87 98z" />
    <glyph glyph-name="Pi" unicode="&#x3a0;" 
d="M95 -3h-26v157h-23v26h170v-26h-23v-157h-26v157h-72v-157z" />
    <glyph glyph-name="Rho" unicode="&#x3a1;" 
d="M70 181h61q59 -2 61 -60q-4 -52 -58 -55h-37v-69h-27v184zM97 155v-63h36q29 2 31 29q-2 32 -32 34h-35z" />
    <glyph glyph-name="Sigma" unicode="&#x3a3;" 
d="M61 183h138v-25h-95l76 -70l-77 -66h99v-25h-142v24l76 68l-75 68v26z" />
    <glyph glyph-name="Tau" unicode="&#x3a4;" 
d="M144 -3h-26v157h-66v26h158v-26h-66v-157z" />
    <glyph glyph-name="Upsilon" unicode="&#x3a5;" 
d="M42 181h35l57 -83l57 83h35l-79 -111v-73h-26v72z" />
    <glyph glyph-name="Phi" unicode="&#x3a6;" 
d="M144 -3h-27v16q-73 6 -74 78q2 70 74 77v13h27l1 -13q71 -8 74 -78q-2 -69 -75 -77v-16zM117 40v101q-46 -4 -47 -50q1 -45 47 -51zM144 141v-101q47 5 48 50q-1 44 -48 51z" />
    <glyph glyph-name="Chi" unicode="&#x3a7;" 
d="M79 -3h-34l71 94l-68 90h34l52 -67l52 67h34l-68 -90l71 -94h-34l-55 71z" />
    <glyph glyph-name="Psi" unicode="&#x3a8;" 
d="M45 181h28q0 -66 45 -76v75h26v-76q46 8 46 77h27q0 -95 -73 -105v-78h-26v78q-71 13 -73 105z" />
    <glyph glyph-name="Omega" unicode="&#x3a9;" 
d="M204 24v-27h-64v31q46 29 47 77q-6 49 -55 53q-54 -2 -57 -50q1 -48 47 -80v-31h-65v27h30q-37 32 -38 85q6 70 82 75q76 -4 82 -79q-1 -54 -37 -81h28z" />
    <glyph glyph-name="alpha" unicode="&#x3b1;" 
d="M204 126v-27q-26 -8 -27 -39q1 -26 27 -37v-27q-32 10 -42 31v0q0 -2 4 -2q-15 -28 -50 -28q-55 2 -58 64q1 65 61 67q33 -1 47 -27q-3 0 -3 -2q12 24 41 27zM84 61q1 -37 32 -39q34 3 35 43q-5 34 -32 37q-34 0 -35 -41z" />
    <glyph glyph-name="beta" unicode="&#x3b2;" 
d="M140 87h-34v22h14q27 2 30 26q-2 27 -26 28q-28 0 -28 -29v-104q15 -11 35 -11q33 4 36 35q-2 32 -27 33zM96 -55h-27v190q3 53 55 54q50 -1 52 -52q0 -20 -13 -33v2q31 -15 30 -51q-3 -56 -61 -59q-21 -1 -36 5v-56z" />
    <glyph glyph-name="gamma" unicode="&#x3b3;" 
d="M191 125l21 -20q-66 -68 -97 -163h-27q11 42 28 75q-8 77 -64 80l8 26q63 -4 76 -69q20 34 55 71z" />
    <glyph glyph-name="delta" unicode="&#x3b4;" 
d="M191 161l-12 -24q-57 32 -72 17q-2 -14 31 -27q53 -20 51 -70q-3 -57 -57 -60q-56 2 -58 63q2 44 31 55q-36 21 -23 51q9 19 44 18q34 -3 65 -23zM132 98q-30 -3 -32 -41q2 -33 32 -36q28 2 32 37q-4 39 -32 40z" />
    <glyph glyph-name="epsilon" unicode="&#x3b5;" 
d="M174 117l-9 -24q-41 18 -48 -4q0 -16 18 -18h32v-25h-31q-20 -1 -22 -15q4 -24 54 0l7 -27q-79 -24 -87 26q0 18 13 29q0 -1 -1 3q-10 13 -9 30q16 53 83 25z" />
    <glyph glyph-name="zeta" unicode="&#x3b6;" 
d="M170 170l23 -13l-42 -69q-45 27 -55 -7q-1 -9 23 -30q10 -8 15 -13q18 -18 18 -35q-2 -34 -46 -35h-21l4 25h14q21 1 23 10q0 9 -22 28q-34 28 -34 48q11 63 72 43z" />
    <glyph glyph-name="eta" unicode="&#x3b7;" 
d="M195 71v-128h-26v128q-1 26 -20 27q-26 -3 -28 -27v-74h-26v90v4q-3 0 -15 -11l-13 21q42 43 50 10l2 2q10 11 35 11q39 -2 41 -53z" />
    <glyph glyph-name="theta" unicode="&#x3b8;" 
d="M158 74h-54q3 -53 26 -55q25 2 28 55zM131 179q51 0 53 -88q0 -94 -52 -96q-54 0 -54 96q1 87 53 88zM104 99h54q-3 53 -28 54q-24 0 -26 -54z" />
    <glyph glyph-name="iota" unicode="&#x3b9;" 
d="M112 122h25v-95q-1 -8 12 -7l1 -23q-37 -5 -38 18v107z" />
    <glyph glyph-name="kappa" unicode="&#x3ba;" 
d="M159 125l21 -18l-5 -5l-45 -38q2 -2 10 -9q29 -22 47 -38l-17 -21q-37 33 -68 56v-55h-26v126h26v-48q27 21 57 50z" />
    <glyph glyph-name="lambda" unicode="&#x3bb;" 
d="M200 15l-17 -22q-18 5 -37 67l-9 30l-42 -93h-27l57 127q-10 31 -20 29q-9 2 -32 -12l-7 27q29 13 41 11q31 0 47 -59l15 -49q14 -56 31 -56z" />
    <glyph glyph-name="mu" unicode="&#x3bc;" 
d="M74 120h27v-68q3 -30 26 -33q23 2 26 31v70h26v-75q0 -24 10 -38l-21 -14q-8 11 -9 14q-10 -12 -31 -11q-20 -1 -28 7v-42h-26v159z" />
    <glyph glyph-name="nu" unicode="&#x3bd;" 
d="M160 120h26q-11 -94 -63 -123h-20q-7 98 -25 112l20 17q24 -15 29 -97q28 28 33 91z" />
    <glyph glyph-name="xi" unicode="&#x3be;" 
d="M179 177v-25q-64 15 -69 -19q1 -22 30 -24h39v-25h-33q-41 -4 -42 -33q1 -24 34 -29q46 -5 46 -36q-3 -41 -50 -43q-12 0 -29 5l8 25q44 -10 43 17q-3 7 -22 9q-23 3 -35 11q-19 13 -20 40q1 38 23 47q-21 6 -18 43q11 54 95 37z" />
    <glyph glyph-name="omicron" unicode="&#x3bf;" 
d="M130 104q-28 -3 -30 -40q3 -40 30 -42q32 2 32 42q-3 40 -32 40zM130 129q57 -2 58 -64q-1 -67 -58 -68q-55 4 -56 69q5 61 56 63z" />
    <glyph glyph-name="pi" unicode="&#x3c0;" 
d="M114 -3h-27v101h-11q-7 0 -19 -2q-7 -1 -13 -1v26q6 0 10 1q11 2 17 2h147v-26h-43v-64q0 -5 10 -8l-2 -27q-33 -1 -35 29v70h-34v-101z" />
    <glyph glyph-name="rho" unicode="&#x3c1;" 
d="M100 7v-61h-27v99q2 77 61 78q50 -2 54 -64q-3 -61 -54 -62q-25 0 -34 10zM134 98q-29 -3 -33 -39q3 -33 31 -39q29 2 31 36q-2 39 -29 42z" />
    <glyph glyph-name="sigma" unicode="&#x3c3;" 
d="M198 119v-24h-30q10 -12 10 -38q-2 -60 -56 -62q-55 1 -58 61q3 62 57 65q7 0 13 -2h64zM121 95q-28 -2 -31 -38q2 -36 32 -38q28 1 30 38q-3 36 -31 38z" />
    <glyph glyph-name="tau" unicode="&#x3c4;" 
d="M161 22v-25q-37 -1 -37 23v73h-30q-10 -1 -25 -4v26q5 0 9 1q11 2 16 2h99v-25h-43v-64q0 -5 11 -7z" />
    <glyph glyph-name="upsilon" unicode="&#x3c5;" 
d="M73 124h27v-44q1 -56 32 -59q29 3 30 61v42h27v-42q-1 -85 -58 -86q-58 1 -58 84v44z" />
    <glyph glyph-name="phi" unicode="&#x3c6;" 
d="M118 24v75q-26 -5 -27 -37q1 -31 27 -38zM118 126v51h26v-51q50 -8 52 -65q-2 -56 -52 -63v-49h-26v49q-50 9 -52 64q2 56 52 64zM144 99v-75q26 5 27 37q-1 33 -27 38z" />
    <glyph glyph-name="chi" unicode="&#x3c7;" 
d="M89 -41h-31l60 88q-23 44 -30 51q-5 4 -16 0l-7 26q31 10 47 -13q13 -21 22 -38l35 53h31l-51 -79q2 -4 6 -14l22 -41q9 -15 20 -11v19l12 -40q-13 -6 -24 -6q-20 2 -32 29q-5 10 -15 27l-6 11z" />
    <glyph glyph-name="psi" unicode="&#x3c8;" 
d="M49 88v32h25v-33q1 -59 44 -67v100h25v-99q44 7 45 72v27h25v-28q-1 -89 -70 -96v-51h-25v51q-67 4 -69 92z" />
    <glyph glyph-name="omega" unicode="&#x3c9;" 
d="M99 126l5 -28q-36 -9 -39 -44q1 -29 25 -33q25 0 28 43v19h25v-20q3 -38 28 -42q24 3 24 34q-1 33 -38 45q2 13 5 26q56 -14 61 -68q0 -59 -50 -63q-29 1 -45 23q5 -9 5 1q-10 -22 -42 -23q-50 1 -52 58q5 61 60 72z" />
    <glyph glyph-name="afii10023" unicode="&#x401;" 
d="M198 -3h-134v184h130v-28h-102v-47h93v-28h-93v-53h106v-28zM123 224v-32h-30v32h30zM165 224v-31h-29v31h29z" />
    <glyph glyph-name="afii10017" unicode="&#x410;" 
d="M48 -3l67 184h32l69 -184h-31l-18 45h-72l-16 -45h-31zM131 143l-27 -73h54z" />
    <glyph glyph-name="afii10018" unicode="&#x411;" 
d="M58 -3v185h132v-29h-103v-42h53q61 -4 63 -56q-2 -57 -59 -58h-86zM141 83h-54v-57h57q28 1 29 28q-1 28 -32 29z" />
    <glyph glyph-name="afii10019" unicode="&#x412;" 
d="M58 -3v186h87q45 -1 50 -46q0 -36 -19 -42q27 -7 28 -44q-2 -53 -58 -54h-88zM140 155h-53v-48h44q33 0 34 28q-4 19 -25 20zM139 78h-52v-52h52q34 -1 34 24q4 24 -34 28z" />
    <glyph glyph-name="afii10020" unicode="&#x413;" 
d="M101 -3h-29v184h118v-28h-89v-156z" />
    <glyph glyph-name="afii10021" unicode="&#x414;" 
d="M86 137v47h114v-159h25l-2 -66h-26v38h-132v-38h-27l-1 67h19q32 30 30 111zM171 25v131h-56v-18q1 -81 -25 -113h81z" />
    <glyph glyph-name="afii10022" unicode="&#x415;" 
d="M198 -3h-134v184h130v-28h-102v-47h93v-28h-93v-53h106v-28z" />
    <glyph glyph-name="afii10024" unicode="&#x416;" 
d="M95 95l-81 86h38l70 -73v73h28v-73l70 73h37l-83 -85l86 -99h-39l-71 85v-85h-28v87l-75 -87h-37z" />
    <glyph glyph-name="afii10025" unicode="&#x417;" 
d="M87 128h-28q4 60 73 59q59 -1 66 -48q2 -34 -17 -41q23 -2 26 -47q-6 -54 -69 -55q-77 -3 -83 64h29q0 -39 50 -39q40 1 46 30q0 30 -38 32h-31v28h27q33 2 32 27q-5 22 -40 23q-41 -1 -43 -33z" />
    <glyph glyph-name="afii10026" unicode="&#x418;" 
d="M57 -3v184h29v-133l89 133h29v-184h-28v135l-90 -135h-29z" />
    <glyph glyph-name="afii10027" unicode="&#x419;" 
d="M57 -3v184h29v-133l89 133h29v-184h-28v136l-90 -136h-29zM85 232h26q2 -16 21 -17q19 1 23 17h26q-9 -39 -51 -40q-38 2 -45 40z" />
    <glyph glyph-name="afii10028" unicode="&#x41a;" 
d="M58 -3v185h29v-75l76 74h38l-86 -84l93 -100h-39l-82 87v-87h-29z" />
    <glyph glyph-name="afii10029" unicode="&#x41b;" 
d="M95 182h116v-185h-28v156h-59v-47q3 -109 -73 -109v30q28 -1 36 19q9 18 8 84v52z" />
    <glyph glyph-name="afii10030" unicode="&#x41c;" 
d="M37 -3v184h40l55 -139l53 139h39v-184h-28v135l-53 -135h-23l-54 134v-134h-29z" />
    <glyph glyph-name="afii10031" unicode="&#x41d;" 
d="M90 80v-83h-29v184h29v-73h82v73h29v-184h-29v83h-82z" />
    <glyph glyph-name="afii10032" unicode="&#x41e;" 
d="M130 161q-54 -2 -57 -69q3 -67 58 -71q59 3 59 71q-5 66 -60 69zM130 189q84 -2 88 -98q-1 -94 -89 -96q-81 3 -85 97q5 94 86 97z" />
    <glyph glyph-name="afii10033" unicode="&#x41f;" 
d="M60 -3v185h142v-185h-28v157h-85v-157h-29z" />
    <glyph glyph-name="afii10034" unicode="&#x420;" 
d="M61 -3v184h77q57 -1 63 -55q0 -59 -60 -59h-51v-70h-29zM137 154h-47v-60h49q33 4 33 31q-5 28 -35 29z" />
    <glyph glyph-name="afii10035" unicode="&#x421;" 
d="M212 121h-30q-6 38 -49 39q-55 -4 -57 -67q0 -70 58 -71q43 -1 51 41h29q-9 -66 -79 -68q-86 1 -87 98q6 94 85 96q72 -2 79 -68z" />
    <glyph glyph-name="afii10036" unicode="&#x422;" 
d="M117 -3v157h-59v27h145v-27h-57v-157h-29z" />
    <glyph glyph-name="afii10037" unicode="&#x423;" 
d="M124 46l-68 134h34l50 -98l38 98h31l-59 -150q-11 -41 -71 -32v29q38 -9 45 19z" />
    <glyph glyph-name="afii10038" unicode="&#x424;" 
d="M117 51v94q-65 -1 -64 -48q-1 -48 64 -46zM117 172v26h28v-26q95 -1 91 -74q3 -72 -91 -74v-27h-28v26q-91 0 -91 75q-1 73 91 74zM145 145v-94q66 1 62 48q3 44 -62 46z" />
    <glyph glyph-name="afii10039" unicode="&#x425;" 
d="M114 90l-61 91h37l43 -68l45 68h35l-60 -90l66 -94h-39l-47 70l-47 -70h-37z" />
    <glyph glyph-name="afii10040" unicode="&#x426;" 
d="M47 -3v184h29v-156h85v156h29v-156h24l-1 -64h-27v36h-139z" />
    <glyph glyph-name="afii10041" unicode="&#x427;" 
d="M66 131v50h29v-50q-1 -27 24 -29h19q8 -1 25 1q5 1 4 1v77h29v-184h-29v78q2 0 1 0q-11 -2 -24 -2h-20q-56 -1 -58 58z" />
    <glyph glyph-name="afii10042" unicode="&#x428;" 
d="M239 -3h-216v184h28v-155h65v155h29v-155h66v155h28v-184z" />
    <glyph glyph-name="afii10043" unicode="&#x429;" 
d="M226 -3h-219v184h29v-155h68v155h28v-155h67v155h29v-155h27l-3 -65h-26v36z" />
    <glyph glyph-name="afii10044" unicode="&#x42a;" 
d="M114 26h45q35 -1 35 31q-3 29 -33 28h-47v-59zM85 -3v156h-46v29h75v-69h51q54 -1 58 -55q-1 -60 -62 -61h-76z" />
    <glyph glyph-name="afii10045" unicode="&#x42b;" 
d="M197 181h28v-184h-28v184zM37 -3v184h28v-68h51q57 -7 59 -57q-2 -58 -62 -59h-76zM65 26h46q33 0 35 29q-3 28 -33 29h-48v-58z" />
    <glyph glyph-name="afii10046" unicode="&#x42c;" 
d="M62 -3v185h28v-69h50q56 -4 60 -56q-1 -60 -63 -60h-75zM90 26h46q34 0 35 31q-4 27 -33 27h-48v-58z" />
    <glyph glyph-name="afii10047" unicode="&#x42d;" 
d="M80 127h-31q17 65 82 64q78 -7 83 -97q-4 -93 -82 -98q-77 1 -82 68h31q1 -41 50 -42q49 4 55 60h-87v29h85q-9 49 -53 51q-42 1 -51 -35z" />
    <glyph glyph-name="afii10048" unicode="&#x42e;" 
d="M155 160q-56 -3 -58 -66q0 -72 58 -72q58 1 59 70q-2 67 -59 68zM69 84h-21v-84h-28v185h28v-74h22q9 77 86 78q84 -1 86 -97q-2 -96 -87 -97q-81 2 -86 89z" />
    <glyph glyph-name="afii10049" unicode="&#x42f;" 
d="M96 -3h-36l44 72q-41 7 -42 55q1 58 61 58h81v-185h-28v70h-38zM176 153h-50q-35 0 -36 -28q0 -29 34 -29h52v57z" />
    <glyph glyph-name="afii10065" unicode="&#x430;" 
d="M184 94v-64q1 -7 11 -5v-28h-18q-19 2 -20 20q0 -6 3 -3q-5 0 -5 -4q-17 -18 -54 -14q-33 5 -34 36q0 41 46 45q2 0 8 1q32 2 34 13v2q-2 20 -29 20q-25 -1 -28 -23h-28q2 47 57 49q55 -1 57 -45zM155 53v7q-6 -4 -36 -6q-24 -1 -25 -21q1 -17 28 -14q29 7 33 34z" />
    <glyph glyph-name="afii10066" unicode="&#x431;" 
d="M163 192h27q-6 -38 -53 -40q-46 -2 -48 -35q11 17 45 18q59 -2 63 -69q-3 -69 -67 -70q-62 3 -65 78v21q2 55 32 74q15 7 38 9q20 1 28 14zM95 64q1 -40 34 -46q38 2 40 44q-2 49 -36 49q-37 -1 -38 -47z" />
    <glyph glyph-name="afii10067" unicode="&#x432;" 
d="M75 -3v141h71q29 -1 37 -28q4 -34 -13 -39q20 -8 16 -41q-8 -32 -39 -33h-72zM136 114h-32v-32h32q19 1 20 16q-1 15 -20 16zM139 58h-35v-37h34q19 1 21 18q-1 18 -20 19z" />
    <glyph glyph-name="afii10068" unicode="&#x433;" 
d="M112 107v-110h-28v135h94v-25h-66z" />
    <glyph glyph-name="afii10069" unicode="&#x434;" 
d="M88 98v38h100v-114h22l-2 -54h-27v29h-101v-29h-26l-2 54h18q19 21 18 76zM101 22h58v89h-43v-17q0 -49 -15 -72z" />
    <glyph glyph-name="afii10070" unicode="&#x435;" 
d="M195 58h-99q2 -32 34 -38q25 0 36 24h30q-18 -49 -66 -49q-62 6 -64 74q5 74 67 74q64 -3 62 -85zM96 84h69q-3 29 -31 33q-34 -1 -38 -33z" />
    <glyph glyph-name="afii10072" unicode="&#x436;" 
d="M98 69l-60 65h37l44 -51v51h29v-51l44 51h36l-58 -64l60 -73h-34l-48 59v-59h-29v59l-47 -59h-34l60 73v-1z" />
    <glyph glyph-name="afii10073" unicode="&#x437;" 
d="M101 94h-27q8 46 60 46q48 -1 51 -40q1 -26 -23 -33q12 0 2 5q26 -6 26 -34q-2 -41 -56 -42q-61 1 -62 51h27q1 -28 35 -29q28 3 29 19q-1 20 -24 20h-26v26h25q20 2 20 16q-1 16 -24 17q-24 1 -33 -22z" />
    <glyph glyph-name="afii10074" unicode="&#x438;" 
d="M102 -3h-31v137h29v-90l60 90h31v-137h-29v92z" />
    <glyph glyph-name="afii10075" unicode="&#x439;" 
d="M83 183h24q4 -18 23 -20q20 1 24 20h25q-9 -40 -50 -42q-39 4 -46 42zM102 -3h-31v137h29v-90l60 90h31v-137h-29v92z" />
    <glyph glyph-name="afii10076" unicode="&#x43a;" 
d="M74 -3v137h29v-54l50 54h35l-63 -66l67 -71h-36l-53 57v-57h-29z" />
    <glyph glyph-name="afii10077" unicode="&#x43b;" 
d="M99 81v53h96v-137h-28v112h-39v-43q2 -70 -48 -69h-13v26q36 -8 32 58z" />
    <glyph glyph-name="afii10078" unicode="&#x43c;" 
d="M83 -3h-29v137h36l42 -98l42 98h33v-137h-28v86l-37 -86h-22l-37 87v-87z" />
    <glyph glyph-name="afii10079" unicode="&#x43d;" 
d="M74 -3v137h28v-53h58v53h28v-137h-28v59h-58v-59h-28z" />
    <glyph glyph-name="afii10080" unicode="&#x43e;" 
d="M130 114q-33 -3 -36 -46q2 -48 37 -50q36 1 37 49q-1 47 -38 47zM131 139q64 -2 66 -72q-3 -70 -65 -72q-64 2 -67 73q3 67 66 71z" />
    <glyph glyph-name="afii10081" unicode="&#x43f;" 
d="M73 -3v137h116v-137h-29v112h-58v-112h-29z" />
    <glyph glyph-name="afii10082" unicode="&#x440;" 
d="M95 135v-11q13 17 43 16q53 -3 58 -75q-3 -67 -60 -70q-32 0 -41 13v-55h-29v182h29zM133 15q33 5 34 51q-3 49 -37 51q-32 -3 -35 -51q3 -48 38 -51z" />
    <glyph glyph-name="afii10083" unicode="&#x441;" 
d="M165 51h30q-9 -56 -63 -56q-62 2 -64 72q3 69 63 74q55 -3 63 -53h-30q-4 26 -32 28q-34 -2 -35 -50q2 -44 35 -48q28 1 33 33z" />
    <glyph glyph-name="afii10084" unicode="&#x442;" 
d="M72 110v25h117v-25h-45v-113h-28v113h-44z" />
    <glyph glyph-name="afii10085" unicode="&#x443;" 
d="M123 0l-58 132h34l39 -95l32 95h30l-55 -154q-13 -40 -57 -25v27q31 -9 35 20z" />
    <glyph glyph-name="afii10086" unicode="&#x444;" 
d="M117 22v91q-53 -1 -51 -46q-2 -45 51 -45zM117 141v45h29v-45q79 -2 78 -73q1 -71 -78 -72v-41h-29v41q-80 1 -79 71q-1 72 79 74zM146 113v-91q52 1 50 46q1 43 -50 45z" />
    <glyph glyph-name="afii10087" unicode="&#x445;" 
d="M116 67l-46 67h35l29 -46l30 46h34l-46 -67l50 -70h-34l-33 50l-35 -50h-34z" />
    <glyph glyph-name="afii10088" unicode="&#x446;" 
d="M61 -3v138h29v-113h60v113h28v-112h23l-2 -55h-25v29h-113z" />
    <glyph glyph-name="afii10089" unicode="&#x447;" 
d="M78 83v51h28v-47q0 -13 30 -13h2h18v60h28v-137h-28v52h-36q-42 0 -42 34z" />
    <glyph glyph-name="afii10090" unicode="&#x448;" 
d="M40 -3v137h29v-113h48v113h28v-113h48v113h29v-137h-182z" />
    <glyph glyph-name="afii10091" unicode="&#x449;" 
d="M204 -3h-174v138h29v-112h47v112h29v-112h47v112h28v-112h22l-3 -53h-25v27z" />
    <glyph glyph-name="afii10092" unicode="&#x44a;" 
d="M91 -3v112h-33v24h62v-49h41q43 -1 43 -45q-3 -41 -42 -42h-71zM158 59h-38v-38h37q18 1 19 18q-2 19 -18 20z" />
    <glyph glyph-name="afii10093" unicode="&#x44b;" 
d="M207 -3h-29v136h29v-136zM55 -3v136h29v-49h41q40 -1 44 -42q-1 -44 -44 -45h-70zM122 59h-38v-37h37q18 1 19 19q-1 17 -18 18z" />
    <glyph glyph-name="afii10094" unicode="&#x44c;" 
d="M74 -3v136h29v-49h40q43 -1 45 -45q-2 -40 -44 -42h-70zM140 60h-37v-39h36q19 1 20 19q-1 19 -19 20z" />
    <glyph glyph-name="afii10095" unicode="&#x44d;" 
d="M97 89h-28q9 51 63 52q61 -1 63 -73q-1 -70 -63 -72q-55 1 -64 56h28q7 -31 36 -32q30 1 34 38h-55v25h54q-5 32 -33 32q-28 -1 -35 -26z" />
    <glyph glyph-name="afii10096" unicode="&#x44e;" 
d="M153 116q-34 -1 -36 -47q1 -50 37 -51q35 1 36 50q0 48 -37 48zM88 60h-15v-60h-29v135h29v-53h16q8 56 64 59q65 -2 65 -73q-2 -72 -65 -73q-61 1 -65 65z" />
    <glyph glyph-name="afii10097" unicode="&#x44f;" 
d="M122 135h69v-138h-29v53h-21l-33 -53h-34l36 54q-31 7 -31 42q2 41 43 42zM162 110h-38q-18 0 -19 -18q2 -16 20 -18h37v36z" />
    <glyph glyph-name="afii10071" unicode="&#x451;" 
d="M195 58h-99q2 -31 34 -37q27 0 36 23h30q-18 -48 -66 -48q-62 5 -64 74q5 72 67 73q64 -3 62 -85zM96 84h69q-3 30 -31 33q-34 -1 -38 -33zM159 186q12 -1 13 -14q-1 -13 -13 -14q-13 1 -14 14q1 13 14 14zM101 186q13 -1 14 -14q-1 -13 -14 -14q-12 1 -13 14q1 13 13 14
z" />
    <glyph glyph-name="uni2010" unicode="&#x2010;" 
d="M166 70v-22h-69v22h69z" />
    <glyph glyph-name="glyph256" 
d="M183 97v-14h-104v14h104z" />
    <glyph glyph-name="glyph257" 
d="M0 99h261v-18h-261v18z" />
    <glyph glyph-name="afii00208" unicode="&#x2015;" 
d="M246 97v-14h-230v14h230z" />
    <glyph glyph-name="uni2016" unicode="&#x2016;" 
d="M117 -29h-17v240h17v-240zM162 -29h-17v240h17v-240z" />
    <glyph glyph-name="glyph260" 
d="M180 139v25q-1 38 27 56l12 -10q-24 -17 -23 -38h14v-33h-30z" />
    <glyph glyph-name="glyph261" 
d="M84 217v-26q1 -36 -28 -55l-10 10q22 18 21 38h-14v33h31z" />
    <glyph glyph-name="glyph262" 
d="M159 139v25q0 37 28 56l10 -10q-22 -18 -21 -39h14v-32h-31zM198 139v25q0 37 28 56l10 -10q-22 -18 -21 -39h14v-32h-31z" />
    <glyph glyph-name="glyph263" 
d="M67 217v-25q1 -38 -27 -56l-12 10q24 17 23 38h-14v33h30zM107 217v-25q1 -37 -28 -56l-11 10q23 17 22 38h-14v33h31z" />
    <glyph glyph-name="twodotenleader" unicode="&#x2025;" 
d="M159 93q2 17 18 18q17 -1 18 -18q-2 -16 -18 -17q-16 1 -18 17zM67 93q1 17 17 18q17 -1 18 -18q-2 -16 -18 -17q-15 1 -17 17z" />
    <glyph glyph-name="glyph265" 
d="M30 74v32h31v-32h-31zM116 74v32h30v-32h-30zM201 74v32h31v-32h-31z" />
    <glyph glyph-name="glyph266" 
d="M133 198h20l-100 -216h-19zM50 102q22 1 22 40q-1 38 -21 40q-22 0 -22 -41q0 -38 21 -39zM51 198q36 -1 37 -57q-1 -53 -38 -55q-35 3 -37 55q1 56 38 57zM136 -2q21 1 21 39q-1 38 -21 40q-21 1 -22 -41q0 -38 22 -38zM136 92q37 -1 38 -57q-1 -50 -39 -52
q-35 3 -37 53q1 55 38 56zM216 -2q22 1 22 39q-1 38 -21 40q-21 1 -22 -41q0 -37 21 -38zM217 92q37 -1 37 -57q-1 -50 -39 -52q-35 3 -37 53q1 55 39 56z" />
    <glyph glyph-name="minute" unicode="&#x2032;" 
d="M36 118h-11l13 66q2 14 15 14t13 -13q0 -6 -5 -16l-7 -14z" />
    <glyph glyph-name="second" unicode="&#x2033;" 
d="M61 118h-12l13 66q2 14 15 14t13 -13q0 -6 -5 -16l-7 -14zM20 118h-12l13 66q4 14 16 14q13 0 13 -13q0 -6 -5 -16l-7 -14z" />
    <glyph glyph-name="uni2035" unicode="&#x2035;" 
d="M156 71l-49 86q-6 13 4 19q10 2 18 -10l36 -95h-9z" />
    <glyph glyph-name="uni203B" unicode="&#x203b;" 
d="M42 13l80 80l-75 75q-6 6 -1 12q6 5 12 -1l75 -75l78 78q5 6 11 -1q3 -6 -2 -12l-76 -76l78 -77q4 -13 -10 -13l-79 79l-78 -79q-13 -4 -13 10zM66 115q20 -2 22 -22q-2 -20 -22 -22q-20 2 -22 22q1 21 22 22zM133 46q20 -2 22 -22q-2 -20 -22 -22q-20 2 -22 22
q1 21 22 22zM199 115q20 -2 22 -22q-2 -20 -22 -22q-20 2 -22 22q1 21 22 22zM133 184q20 -2 22 -22q-2 -20 -22 -22q-20 2 -22 22q1 21 22 22z" />
    <glyph glyph-name="glyph271" horiz-adv-x="186" 
d="M160 44l22 -11q-20 -52 -75 -48q-68 2 -79 77h-23v17h22q-1 4 -1 10v11h-21v18h24q15 75 78 78q50 0 72 -44l-20 -11q-17 36 -51 35q-46 -3 -56 -58h95v-18h-97q0 1 0 -3q-1 -4 -1 -6t1 -7v-5h97v-17h-96q9 -58 57 -59q41 0 52 41z" />
    <glyph glyph-name="uni2103" unicode="&#x2103;" 
d="M203 46l21 -13q-19 -51 -78 -48q-77 4 -80 105q4 99 79 106q55 1 76 -44l-21 -10q-15 35 -54 34q-54 -6 -57 -85q1 -85 59 -88q43 0 55 43zM28 171q2 -15 17 -17q15 2 17 17q-2 15 -17 17q-15 -2 -17 -17zM13 171q2 31 32 33q31 -2 33 -33q-3 -30 -33 -33q-29 3 -32 33z
" />
    <glyph glyph-name="afii61248" unicode="&#x2105;" 
d="M145 29q4 52 57 59q30 0 31 -35q-7 -56 -52 -59q-33 3 -36 35zM169 22q0 -17 14 -18q32 4 38 50q-1 21 -17 22q-23 -2 -35 -54zM100 120h13q-18 -39 -47 -40q-35 1 -37 43q6 49 53 54q33 -1 34 -26q-1 -15 -16 -16q-14 0 -14 11q0 9 9 15q2 1 2 -1q-1 3 -13 5
q-25 -4 -32 -54q0 -18 17 -18q19 1 31 27zM78 -15h-15l117 202h16z" />
    <glyph glyph-name="uni2109" unicode="&#x2109;" 
d="M122 81v-84h-31v190h134v-28h-103v-50h90v-28h-90zM64 206q24 -2 26 -27q-2 -24 -26 -26q-25 2 -27 26q2 26 27 27zM54 179q1 -9 10 -10q9 1 10 10q-1 10 -10 11q-9 -1 -10 -11z" />
    <glyph glyph-name="afii61352" unicode="&#x2116;" 
d="M117 34v148h21v-194h-22l-69 151v-151h-21v192h25zM142 68q3 58 49 60q47 -3 50 -60q-3 -57 -50 -60q-46 2 -49 60zM163 68q2 -40 28 -41q27 1 29 41q-2 40 -29 41q-26 -1 -28 -41zM228 4v-16h-70v16h70z" />
    <glyph glyph-name="uni2121" unicode="&#x2121;" 
d="M180 186v-38q0 -3 7 -2h10q3 -1 11 12h9l-8 -22h-52v9q8 0 8 3v38q0 1 -8 1v10h31v-10q-8 0 -8 -1zM140 187h-16v-14h15l1 8h9v-26h-9l-1 8h-15v-15q0 -2 3 -2h14q5 -1 9 12l9 -3l-6 -19h-51v9q7 -1 7 3v39h-7v10h50l1 -19h-7q-4 9 -6 9zM79 186v-39q0 -2 9 -2v-9h-32v9
q8 1 8 2v39v0h-7q-4 0 -6 -7h-7l1 18h55l1 -18h-8q-2 8 -3 8h-9q-2 0 -2 -1z" />
    <glyph glyph-name="uni2160" unicode="&#x2160;" 
d="M149 207v-224h-37v224h37z" />
    <glyph glyph-name="uni2161" unicode="&#x2161;" 
d="M179 207v-224h-36v224h36zM119 206v-224h-36v224h36z" />
    <glyph glyph-name="uni2162" unicode="&#x2162;" 
d="M148 207v-224h-34v224h34zM199 207v-224h-34v224h34zM97 206v-224h-34v224h34z" />
    <glyph glyph-name="uni2163" unicode="&#x2163;" 
d="M149 27l52 180h36l-72 -225h-32l-72 225h35zM58 207v-225h-32v225h32z" />
    <glyph glyph-name="uni2164" unicode="&#x2164;" 
d="M132 26l56 180h37l-76 -223h-34l-77 223h37z" />
    <glyph glyph-name="uni2165" unicode="&#x2165;" 
d="M113 27l54 180h36l-74 -225h-32l-74 225h36zM240 207v-225h-33v225h33z" />
    <glyph glyph-name="uni2166" unicode="&#x2166;" 
d="M244 207v-225h-29v225h29zM210 207v-225h-30v225h30zM97 19l48 188h32l-65 -225h-28l-65 225h32l49 -188h-3z" />
    <glyph glyph-name="uni2167" unicode="&#x2167;" 
d="M88 19l48 188h32l-64 -225h-29l-65 225h32l49 -188h-3zM223 207v-225h-29v225h29zM253 207v-225h-29v225h29zM194 207v-225h-30v225h30z" />
    <glyph glyph-name="uni2168" unicode="&#x2168;" 
d="M57 207v-225h-32v225h32zM170 96l69 -114h-40l-50 86l-52 -86h-38l70 114l-66 111h40l47 -82l48 82h38z" />
    <glyph glyph-name="uni2169" unicode="&#x2169;" 
d="M156 96l73 -113h-42l-53 85l-54 -85h-41l75 113l-69 110h41l50 -81l49 81h40z" />
    <glyph glyph-name="uni216A" unicode="&#x216a;" 
d="M135 96l69 -114h-39l-50 86l-52 -86h-38l70 114l-66 111h40l47 -82l47 82h38zM239 207v-225h-32v225h32z" />
    <glyph glyph-name="uni216B" unicode="&#x216b;" 
d="M247 207v-224h-30v224h30zM213 207v-225h-30v225h30zM118 96l64 -114h-36l-46 85l-48 -85h-36l66 114l-62 110h37l44 -81l43 81h35z" />
    <glyph glyph-name="uni2170" unicode="&#x2170;" 
d="M148 147v-164h-35v164h35zM148 170h-35v36h35v-36z" />
    <glyph glyph-name="uni2171" unicode="&#x2171;" 
d="M118 147v-164h-34v164h34zM118 170h-34v36h34v-36zM178 147v-164h-34v164h34zM178 170h-34v36h34v-36z" />
    <glyph glyph-name="uni2172" unicode="&#x2172;" 
d="M147 147v-164h-32v164h32zM147 170h-32v37h32v-37zM197 147v-164h-32v164h32zM197 170h-32v37h32v-37zM97 147v-165h-32v165h32zM97 170h-32v36h32v-36z" />
    <glyph glyph-name="uni2173" unicode="&#x2173;" 
d="M75 146v-164h-31v164h31zM75 169h-31v36h31v-36zM144 15l42 131h33l-58 -165h-31l-56 165h35l38 -131h-3z" />
    <glyph glyph-name="uni2174" unicode="&#x2174;" 
d="M130 16l49 131h39l-70 -164h-35l-66 164h40l46 -131h-3z" />
    <glyph glyph-name="uni2175" unicode="&#x2175;" 
d="M114 16l43 131h34l-60 -164h-32l-58 164h36l40 -131h-3zM222 147v-164h-32v164h32zM222 170h-32v37h32v-37z" />
    <glyph glyph-name="uni2176" unicode="&#x2176;" 
d="M236 147v-164h-30v164h30zM236 170h-30v36h30v-36zM201 147v-164h-31v164h31zM201 170h-31v36h31v-36zM96 16l40 130h34l-58 -164h-30l-55 164h34l38 -130h-3z" />
    <glyph glyph-name="uni2177" unicode="&#x2177;" 
d="M80 17l37 129h30l-52 -163h-28l-50 163h32l34 -129h-3zM175 147v-164h-28v164h28zM175 169h-28v37h28v-37zM210 147v-164h-27v164h27zM210 169h-27v37h27v-37zM246 147v-164h-29v164h29zM246 170h-29v36h29v-36z" />
    <glyph glyph-name="uni2178" unicode="&#x2178;" 
d="M72 147v-164h-32v164h32zM72 170h-32v37h32v-37zM169 66l56 -83h-41l-36 55l-35 -55h-40l56 83l-54 81h41l34 -53l33 53h40z" />
    <glyph glyph-name="uni2179" unicode="&#x2179;" 
d="M156 66l63 -83h-45l-41 56l-40 -56h-44l62 83l-59 81h45l38 -54l38 54h44z" />
    <glyph glyph-name="arrowleft" unicode="&#x2190;" 
d="M268 97v-14h-206q16 -18 16 -52q-32 43 -78 60q45 17 78 58q-1 -37 -16 -52h206z" />
    <glyph glyph-name="arrowup" unicode="&#x2191;" 
d="M144 -39h-14v204q-20 -17 -52 -16q42 31 59 78q16 -45 59 -78q-38 1 -52 15v-203z" />
    <glyph glyph-name="arrowright" unicode="&#x2192;" 
d="M0 97h205q-13 13 -16 52q34 -41 79 -58q-46 -17 -78 -60q0 33 16 52h-206v14z" />
    <glyph glyph-name="arrowdown" unicode="&#x2193;" 
d="M143 221v-206q16 15 52 15q-43 -31 -59 -74q-16 43 -58 73q29 3 51 -15v207h14z" />
    <glyph glyph-name="uni2196" unicode="&#x2196;" 
d="M0 222l151 -44l-77 -21l187 -185l-9 -9l-190 188l-18 -81z" />
    <glyph glyph-name="uni2197" unicode="&#x2197;" 
d="M9 -37l-9 9l187 185l-77 21l151 44l-44 -149l-20 75z" />
    <glyph glyph-name="uni2198" unicode="&#x2198;" 
d="M261 -37l-152 42l78 20l-187 187l9 10l190 -190l18 81z" />
    <glyph glyph-name="uni2199" unicode="&#x2199;" 
d="M252 222l9 -10l-187 -187l78 -20l-152 -42l44 146l21 -74z" />
    <glyph glyph-name="element" unicode="&#x2208;" 
d="M213 27v-21h-95q-68 2 -69 81q1 80 69 81h95v-20h-97q-43 -3 -44 -50h136v-20h-136q0 -51 43 -51h98z" />
    <glyph glyph-name="product" unicode="&#x220f;" 
d="M209 161v-160q-1 -17 25 -16v-12h-85v12q26 -1 25 16v174h-86v-174q-1 -17 25 -16v-12h-85v12q26 -1 25 16v160q0 22 -24 22v12h204v-12q-24 0 -24 -22z" />
    <glyph glyph-name="summation" unicode="&#x2211;" 
d="M205 193l2 -46h-12q0 4 -1 6q-4 24 -35 23h-61l68 -89l-72 -84h88q22 -2 32 29h12q-2 -10 -5 -19q-5 -19 -7 -42q-5 0 -11 1q-7 2 -12 2h-128q-3 0 -8 -1h-14l92 103l-92 120q21 -3 34 -3h130z" />
    <glyph glyph-name="uni2215" unicode="&#x2215;" 
d="M202 172l-116 -189h-22l116 189h22z" />
    <glyph glyph-name="radical" unicode="&#x221a;" 
d="M128 6l126 215h9v-15l-137 -236h-10l-81 153l-30 -16l-5 14l52 29z" />
    <glyph glyph-name="proportional" unicode="&#x221d;" 
d="M47 82q3 49 45 51q29 0 41 -32q15 31 50 30q26 -1 30 -9q0 -9 -6 -9q-2 0 -7 1h-8q-31 3 -48 -38q17 -25 46 -24q4 0 9 1t7 1q9 0 9 -7q-8 -13 -32 -14q-35 0 -45 28q-14 -31 -45 -30q-44 2 -46 51zM61 80q1 -27 27 -28q20 0 35 33q2 4 3 4q-11 22 -34 22q-29 -2 -31 -31
z" />
    <glyph glyph-name="infinity" unicode="&#x221e;" 
d="M130 106q19 19 33 23q44 13 55 -32q-1 -40 -40 -42q-23 2 -45 24q-3 3 -2 2q1 1 -2 -2q-21 -22 -45 -24q-39 1 -41 42q12 45 56 32q12 -5 30 -21q2 -3 1 -2zM118 93q-17 15 -27 18q-24 7 -29 -19q3 -22 26 -18q12 3 28 17zM143 93q17 -18 30 -19q23 -4 27 18
q-5 26 -29 19q-10 -3 -28 -18z" />
    <glyph glyph-name="orthogonal" unicode="&#x221f;" 
d="M57 172v-150h161v-14h-174v164h13z" />
    <glyph glyph-name="angle" unicode="&#x2220;" 
d="M41 -2l126 167l14 -9l-107 -142h150v-16h-183z" />
    <glyph glyph-name="uni2223" unicode="&#x2223;" 
d="M138 -39h-14v260h14v-260z" />
    <glyph glyph-name="uni2225" unicode="&#x2225;" 
d="M115 -33h-16l129 254h16zM38 -33h-16l129 254h16z" />
    <glyph glyph-name="logicaland" unicode="&#x2227;" 
d="M208 -9h-19l-54 177l-60 -175h-19l69 204h20z" />
    <glyph glyph-name="logicalor" unicode="&#x2228;" 
d="M75 195l57 -180l58 180h18l-66 -207h-20l-66 207h19z" />
    <glyph glyph-name="intersection" unicode="&#x2229;" 
d="M191 -3v95q-1 54 -60 56q-59 -2 -60 -56v-95h-21v95q2 75 81 77q79 -2 81 -77v-95h-21z" />
    <glyph glyph-name="union" unicode="&#x222a;" 
d="M191 68v96h21v-94q-1 -75 -81 -76q-80 1 -81 76v94h21v-96q1 -54 60 -55q59 1 60 55z" />
    <glyph glyph-name="integral" unicode="&#x222b;" 
d="M122 35l3 84q3 60 29 61q11 0 11 -10q0 -8 -8 -8q-4 0 -8 5q-1 1 -2 1q-4 2 -7 -48l-3 -86q-2 -89 -30 -84q-10 0 -10 10q0 8 8 8q5 0 9 -5v-1q6 -3 8 73z" />
    <glyph glyph-name="uni222E" unicode="&#x222e;" 
d="M139 85l-1 -41q14 3 15 21q-1 18 -14 20zM122 46l2 39q-13 -2 -14 -20q1 -17 12 -19zM140 120v-23q24 -5 25 -32q-2 -29 -28 -33v2q-1 -34 -5 -55q-6 -29 -25 -29q-10 0 -10 10q0 8 8 8q5 0 9 -5q0 -1 -1 -1q7 0 9 54v17q-23 6 -24 32q1 27 26 32l2 22q2 60 28 61
q11 0 11 -10q0 -8 -8 -8q-4 0 -8 5l-1 1q-7 1 -8 -48z" />
    <glyph glyph-name="therefore" unicode="&#x2234;" 
d="M131 125q-16 2 -18 18q2 17 18 18q17 -1 18 -18q-1 -16 -18 -18zM188 28q-16 2 -18 18q1 16 18 17q17 -1 18 -17q-1 -16 -18 -18zM74 28q-16 2 -18 18q1 16 18 17q17 -1 18 -17q-1 -16 -18 -18z" />
    <glyph glyph-name="uni2235" unicode="&#x2235;" 
d="M74 125q-16 2 -18 18q2 17 18 18q17 -1 18 -18q-1 -16 -18 -18zM131 28q-16 2 -18 18q1 16 18 17q17 -1 18 -17q-1 -16 -18 -18zM188 125q-16 2 -18 18q2 17 18 18q17 -1 18 -18q-1 -16 -18 -18z" />
    <glyph glyph-name="uni2236" unicode="&#x2236;" 
d="M147 148v-33h-32v33h32zM147 43v-33h-32v33h32z" />
    <glyph glyph-name="uni2237" unicode="&#x2237;" 
d="M174 143q15 -1 16 -16q-2 -15 -16 -16q-14 1 -16 16q1 15 16 16zM174 52q14 -1 16 -15q-1 -15 -16 -16q-15 1 -16 16q2 14 16 15zM88 143q15 -1 16 -16q-2 -15 -16 -16q-14 1 -16 16q1 15 16 16zM88 52q14 -1 16 -15q-1 -15 -16 -16q-15 1 -16 16q2 14 16 15z" />
    <glyph glyph-name="uni223D" unicode="&#x223d;" 
d="M232 46h-17q-2 53 -37 55q-17 0 -41 -25q-29 -30 -52 -30q-53 0 -55 72h16q1 -54 37 -55q19 0 44 26q28 29 51 29q52 -2 54 -72z" />
    <glyph glyph-name="approxequal" unicode="&#x2248;" 
d="M218 124v-21q-24 -20 -45 -19q-17 0 -45 11q-26 10 -38 10q-19 0 -46 -22v20q25 21 45 20q17 0 45 -11q26 -10 38 -10q19 0 46 22zM218 86v-21q-24 -20 -45 -19q-17 0 -45 11q-26 9 -38 9q-19 0 -46 -22v21q24 20 45 19q17 0 45 -11q26 -10 38 -10q18 0 46 23z" />
    <glyph glyph-name="uni224C" unicode="&#x224c;" 
d="M234 9h-210v17h210v-17zM234 45h-210v17h210v-17zM232 84h-17q-2 53 -37 54q-17 0 -41 -25q-29 -29 -52 -29q-53 0 -55 71h16q1 -54 37 -55q19 0 44 26q28 29 51 29q51 -2 54 -71z" />
    <glyph glyph-name="uni2252" unicode="&#x2252;" 
d="M221 132v-25h-180v25h180zM221 80v-25h-180v25h180zM96 179v-34h-33v34h33zM199 41v-33h-33v33h33z" />
    <glyph glyph-name="notequal" unicode="&#x2260;" 
d="M98 54h-55v18h69l16 21h-85v18h99l45 59h20l-45 -59h57v-18h-70l-16 -21h86v-18h-101l-44 -58h-20z" />
    <glyph glyph-name="equivalence" unicode="&#x2261;" 
d="M218 108h-174v18h174v-18zM218 38h-174v18h174v-18zM218 73h-174v18h174v-18z" />
    <glyph glyph-name="lessequal" unicode="&#x2264;" 
d="M221 61v-22l-180 50v20l180 50v-21l-143 -39zM221 14v-19l-180 49v21z" />
    <glyph glyph-name="greaterequal" unicode="&#x2265;" 
d="M221 65v-21l-180 -49v19zM221 109v-20l-180 -50v22l143 38l-143 39v21z" />
    <glyph glyph-name="uni2266" unicode="&#x2266;" 
d="M43 108v17l176 45v-18l-148 -37v3l148 -37v-18zM43 -3v15h176v-15h-176zM43 34v17h176v-17h-176z" />
    <glyph glyph-name="uni2267" unicode="&#x2267;" 
d="M43 63v18l148 37v-3l-148 37v18l176 -45v-17zM43 -3v15h176v-15h-176zM43 34v17h176v-17h-176z" />
    <glyph glyph-name="uni226E" unicode="&#x226e;" 
d="M114 65l19 43l-64 -25zM219 23v-18l-95 38l-21 -47h-19l24 53l-65 26v15l100 39l16 41h18l-13 -32l55 22v-18l-64 -25l-25 -58z" />
    <glyph glyph-name="uni226F" unicode="&#x226f;" 
d="M103 -4h-19l14 31l-55 -22v19l65 25l24 58l-89 36v17l96 -37l20 47h18l-22 -54l64 -26v-15l-99 -39zM148 100l-18 -43l63 26z" />
    <glyph glyph-name="circleplus" unicode="&#x2295;" 
d="M122 10v70h-69v18h69v70h18v-70h69v-18h-69v-70h-18zM131 208q109 -10 119 -119q-10 -107 -119 -117q-109 10 -119 117q10 109 119 119zM131 192q-93 -9 -102 -103q9 -91 102 -100q93 9 102 100q-9 94 -102 103z" />
    <glyph glyph-name="uni2299" unicode="&#x2299;" 
d="M131 73q-16 2 -18 18q2 17 18 18q17 -1 18 -18q-1 -16 -18 -18zM131 12q72 7 79 79q-7 73 -79 80q-72 -7 -79 -80q7 -72 79 -79zM131 187q88 -8 96 -96q-8 -87 -96 -94q-88 7 -96 94q8 88 96 96z" />
    <glyph glyph-name="perpendicular" unicode="&#x22a5;" 
d="M52 14h70v150h18v-150h70v-16h-158v16z" />
    <glyph glyph-name="uni22BF" unicode="&#x22bf;" 
d="M245 -20h-213l213 225v-225zM231 -6v175l-166 -175h166z" />
    <glyph glyph-name="uni2312" unicode="&#x2312;" 
d="M240 58l-2 -5q-7 0 -18 12q-38 42 -86 44h-7q-48 -2 -85 -44q-11 -12 -18 -12l-2 5q37 75 108 75q75 1 110 -75z" />
    <glyph glyph-name="uni2460" unicode="&#x2460;" 
d="M131 221q117 -11 128 -128q-11 -114 -128 -125q-117 11 -128 125q11 117 128 128zM145 181v-176h-28v121h-39v23q40 -1 45 32h22zM131 209q-106 -10 -116 -116q10 -103 116 -113q106 10 116 113q-10 106 -116 116z" />
    <glyph glyph-name="uni2461" unicode="&#x2461;" 
d="M131 221q117 -11 128 -128q-11 -114 -128 -125q-117 11 -128 125q11 117 128 128zM101 115h-28q1 65 63 66q54 -3 57 -53q2 -37 -48 -60l-18 -10q-25 -14 -27 -27h93v-26h-124q1 52 42 74l23 13q32 14 30 37q-3 26 -31 27q-31 0 -32 -41zM131 209q-106 -10 -116 -116
q10 -103 116 -113q106 10 116 113q-10 106 -116 116z" />
    <glyph glyph-name="uni2462" unicode="&#x2462;" 
d="M131 221q117 -11 128 -128q-11 -114 -128 -125q-117 11 -128 125q11 117 128 128zM115 86v26q9 -2 14 -2q29 1 30 25q-2 23 -29 24q-29 0 -31 -37h-27q2 61 59 62q53 -2 56 -48q0 -28 -16 -35q23 -8 23 -40q-3 -56 -65 -58q-21 0 -33 8q-25 12 -28 55h28q1 -37 34 -37
q33 2 35 29q0 28 -37 28h-13zM131 209q-106 -10 -116 -116q10 -103 116 -113q106 10 116 113q-10 106 -116 116z" />
    <glyph glyph-name="uni2463" unicode="&#x2463;" 
d="M131 221q117 -11 128 -128q-11 -114 -128 -125q-117 11 -128 125q11 117 128 128zM195 47h-25v-42h-28v42h-75v25l80 109h23v-110h25v-24zM142 136l-46 -65h46v65zM131 209q-106 -10 -116 -116q10 -103 116 -113q106 10 116 113q-10 106 -116 116z" />
    <glyph glyph-name="uni2464" unicode="&#x2464;" 
d="M131 221q117 -11 128 -128q-11 -114 -128 -125q-117 11 -128 125q11 117 128 128zM110 155l-6 -37q8 7 29 7q57 -5 60 -57q-4 -62 -66 -63q-52 1 -58 53h28q3 -28 34 -28q31 2 33 35q-1 33 -35 35q-18 0 -31 -16l-23 1l13 97h95v-27h-73zM131 209q-106 -10 -116 -116
q10 -103 116 -113q106 10 116 113q-10 106 -116 116z" />
    <glyph glyph-name="uni2465" unicode="&#x2465;" 
d="M131 221q117 -11 128 -128q-11 -114 -128 -125q-117 11 -128 125q11 117 128 128zM189 133h-26q-5 26 -28 26q-34 -2 -38 -59l-3 3q10 19 42 19q55 -5 57 -57q0 -26 -18 -44q-15 -19 -45 -18t-48 26q-13 22 -13 61q3 92 67 94q49 -3 53 -51zM100 63q2 -33 34 -34
q29 2 31 35q-3 32 -32 33q-31 -1 -33 -34zM131 209q-106 -10 -116 -116q10 -103 116 -113q106 10 116 113q-10 106 -116 116z" />
    <glyph glyph-name="uni2466" unicode="&#x2466;" 
d="M131 221q117 -11 128 -128q-11 -114 -128 -125q-117 11 -128 125q11 117 128 128zM68 153v26h126v-22q-56 -62 -73 -150h-29q14 79 68 146h-92zM131 209q-106 -10 -116 -116q10 -103 116 -113q106 10 116 113q-10 106 -116 116z" />
    <glyph glyph-name="uni2467" unicode="&#x2467;" 
d="M131 221q117 -11 128 -128q-11 -114 -128 -125q-117 11 -128 125q11 117 128 128zM187 137q0 -27 -18 -36q23 -9 24 -41q-4 -55 -62 -57q-24 1 -43 14q-20 16 -19 43q0 32 24 41q-17 7 -18 33q4 49 55 50q53 -2 57 -47zM131 88q-31 -1 -33 -29q2 -29 34 -30q32 0 32 29
q-1 28 -33 30zM131 112q25 2 27 24q-1 23 -29 23q-24 -1 -26 -24q2 -21 28 -23zM131 209q-106 -10 -116 -116q10 -103 116 -113q106 10 116 113q-10 106 -116 116z" />
    <glyph glyph-name="uni2468" unicode="&#x2468;" 
d="M131 221q117 -11 128 -128q-11 -114 -128 -125q-117 11 -128 125q11 117 128 128zM72 55h28q2 -27 26 -28q31 -1 37 47q-5 -8 -36 -9q-55 3 -57 58q4 58 58 61q63 -1 64 -82q-3 -97 -66 -99q-50 1 -54 52zM130 90q31 1 31 35q-1 33 -32 34q-29 -2 -31 -36q0 -33 32 -33z
M131 209q-106 -10 -116 -116q10 -103 116 -113q106 10 116 113q-10 106 -116 116z" />
    <glyph glyph-name="uni2469" unicode="&#x2469;" 
d="M131 221q117 -11 128 -128q-11 -114 -128 -125q-117 11 -128 125q11 117 128 128zM103 181v-176h-29v121h-41v23q42 -1 47 32h23zM199 94q0 65 -33 65q-34 0 -34 -65t34 -65q33 0 33 65zM229 94q-2 -90 -63 -91q-62 1 -63 91q1 89 63 90q61 -1 63 -90zM131 209
q-106 -10 -116 -116q10 -103 116 -113q106 10 116 113q-10 106 -116 116z" />
    <glyph glyph-name="uni2474" unicode="&#x2474;" 
d="M44 217h23q-24 -43 -30 -66q-7 -26 -7 -64q-2 -45 37 -115h-22q-46 63 -45 121q0 59 44 124zM217 -28h-23q41 62 38 128q2 44 -37 117h22q47 -68 45 -123q1 -60 -45 -122zM147 187v-186h-31v127h-42v24q45 -2 49 35h24z" />
    <glyph glyph-name="uni2475" unicode="&#x2475;" 
d="M44 217h23q-24 -43 -30 -66q-7 -26 -7 -64q-2 -45 37 -115h-22q-46 63 -45 121q0 59 44 124zM217 -28h-23q41 62 38 128q2 44 -37 117h22q47 -68 45 -123q1 -60 -45 -122zM99 116h-28q1 69 65 71q56 -4 59 -57q2 -39 -50 -63l-18 -11q-26 -14 -28 -28h96v-27h-129
q2 54 45 77l23 14q33 15 31 39q-2 28 -32 29q-32 0 -34 -44z" />
    <glyph glyph-name="uni2476" unicode="&#x2476;" 
d="M44 217h23q-24 -43 -30 -66q-7 -26 -7 -64q-2 -45 37 -115h-22q-46 63 -45 121q0 59 44 124zM217 -28h-23q41 62 38 128q2 44 -37 117h22q47 -68 45 -123q1 -60 -45 -122zM114 86v25h15q30 1 31 26q-2 25 -30 26q-31 0 -32 -39h-28q2 64 61 65q56 -2 59 -51
q-1 -30 -17 -37q23 -8 23 -42q-3 -60 -67 -61q-22 0 -35 8q-27 13 -28 58h29q1 -40 35 -40q34 2 36 32q0 30 -39 30h-13z" />
    <glyph glyph-name="uni2477" unicode="&#x2477;" 
d="M44 217h23q-24 -43 -30 -66q-7 -26 -7 -64q-2 -45 37 -115h-22q-46 63 -45 121q0 59 44 124zM217 -28h-23q41 62 38 128q2 44 -37 117h22q47 -68 45 -123q1 -60 -45 -122zM198 44h-27v-43h-28v43h-79v26l84 117h23v-117h27v-26zM147 145l-53 -75h49v75h4z" />
    <glyph glyph-name="uni2478" unicode="&#x2478;" 
d="M44 217h23q-24 -43 -30 -66q-7 -26 -7 -64q-2 -45 37 -115h-22q-46 63 -45 121q0 59 44 124zM217 -28h-23q41 62 38 128q2 44 -37 117h22q47 -68 45 -123q1 -60 -45 -122zM109 159l-6 -39q8 7 31 7q58 -5 62 -61q-3 -65 -69 -66q-54 2 -61 56h30q3 -29 35 -30q32 2 35 38
q-2 35 -37 37q-19 0 -33 -17l-23 1l14 102h99v-28h-77z" />
    <glyph glyph-name="uni2479" unicode="&#x2479;" 
d="M44 217h23q-24 -43 -30 -66q-7 -26 -7 -64q-2 -45 37 -115h-22q-46 63 -45 121q0 59 44 124zM217 -28h-23q41 62 38 128q2 44 -37 117h22q47 -68 45 -123q1 -60 -45 -122zM192 135h-28q-5 28 -28 28q-36 -2 -39 -53q9 14 39 14q57 -5 59 -61q1 -28 -18 -47
q-15 -19 -47 -18t-50 27q-13 23 -13 65q3 97 69 99q51 -3 56 -54zM99 61q2 -36 35 -37q30 2 32 38q-2 34 -33 35q-32 -1 -34 -36z" />
    <glyph glyph-name="uni247A" unicode="&#x247a;" 
d="M44 217h23q-24 -43 -30 -66q-7 -26 -7 -64q-2 -45 37 -115h-22q-46 63 -45 121q0 59 44 124zM217 -28h-23q41 62 38 128q2 44 -37 117h22q47 -68 45 -123q1 -60 -45 -122zM66 156v29h130v-24q-59 -67 -74 -159h-32q15 85 72 154h-96z" />
    <glyph glyph-name="uni247B" unicode="&#x247b;" 
d="M44 217h23q-24 -43 -30 -66q-7 -26 -7 -64q-2 -45 37 -115h-22q-46 63 -45 121q0 59 44 124zM217 -28h-23q41 62 38 128q2 44 -37 117h22q47 -68 45 -123q1 -60 -45 -122zM189 140q0 -30 -19 -38q24 -11 25 -44q-3 -58 -64 -60q-27 1 -45 15q-20 16 -19 45q0 34 25 43
q-18 8 -19 35q4 52 57 53q55 -2 59 -49zM131 87q-32 -1 -34 -30q2 -32 35 -33q33 1 33 31q-1 31 -34 32zM130 113q27 1 29 26q-2 23 -30 24q-26 -1 -27 -26q2 -22 28 -24z" />
    <glyph glyph-name="uni247C" unicode="&#x247c;" 
d="M44 217h23q-24 -43 -30 -66q-7 -26 -7 -64q-2 -45 37 -115h-22q-46 63 -45 121q0 59 44 124zM217 -28h-23q41 62 38 128q2 44 -37 117h22q47 -68 45 -123q1 -60 -45 -122zM70 52h28q2 -28 28 -29q32 -2 40 63l3 -3q-9 -19 -42 -20q-57 3 -59 61q4 62 60 65q66 0 66 -87
q-3 -102 -68 -104q-52 1 -56 54zM130 89q31 2 32 38q-1 35 -33 36q-30 -2 -32 -38q0 -36 33 -36z" />
    <glyph glyph-name="uni247D" unicode="&#x247d;" 
d="M44 217h23q-24 -43 -30 -66q-7 -26 -7 -64q-2 -45 37 -115h-22q-46 63 -45 121q0 59 44 124zM217 -28h-23q41 62 38 128q2 44 -37 117h22q47 -68 45 -123q1 -60 -45 -122zM101 187v-186h-29v127h-41v24q42 -2 47 35h23zM201 93q-1 69 -34 70q-33 -1 -33 -70q0 -68 33 -68
q33 1 34 68zM230 93q-1 -94 -63 -95q-61 1 -62 95q1 95 62 96q62 -1 63 -96z" />
    <glyph glyph-name="uni247E" unicode="&#x247e;" 
d="M44 217h23q-24 -43 -30 -66q-7 -26 -7 -64q-2 -45 37 -115h-22q-46 63 -45 121q0 59 44 124zM217 -28h-23q41 62 38 128q2 44 -37 117h22q47 -68 45 -123q1 -60 -45 -122zM114 187v-187h-30v128h-40v24q42 -1 47 35h23zM204 187v-187h-29v128h-41v24q42 -1 47 35h23z" />
    <glyph glyph-name="uni247F" unicode="&#x247f;" 
d="M44 217h23q-24 -43 -30 -66q-7 -26 -7 -64q-2 -45 37 -115h-22q-46 63 -45 121q0 59 44 124zM217 -28h-23q41 62 38 128q2 44 -37 117h22q47 -68 45 -123q1 -60 -45 -122zM100 187v-187h-28v128h-38v24q40 -2 44 35h22zM129 116h-27q1 69 60 71q52 -4 55 -57
q2 -38 -46 -64l-17 -10q-23 -13 -26 -28h89v-28h-119q2 55 40 78l22 14q31 15 29 39q-3 28 -30 29q-29 0 -30 -44z" />
    <glyph glyph-name="uni2480" unicode="&#x2480;" 
d="M44 217h23q-24 -43 -30 -66q-7 -26 -7 -64q-2 -45 37 -115h-22q-46 63 -45 121q0 59 44 124zM217 -28h-23q41 62 38 128q2 44 -37 117h22q47 -68 45 -123q1 -60 -45 -122zM104 187v-186h-29v127h-40v24q41 -2 46 35h23zM148 86v25h14q30 1 30 26q-2 25 -29 26
q-30 0 -31 -39h-27q1 64 59 65q54 -2 57 -51q-1 -31 -17 -37q23 -8 23 -42q-3 -59 -65 -61q-17 0 -33 8q-26 15 -28 58h28q1 -39 34 -39q33 2 35 31q0 30 -37 30h-13z" />
    <glyph glyph-name="uni2481" unicode="&#x2481;" 
d="M44 217h23q-24 -43 -30 -66q-7 -26 -7 -64q-2 -45 37 -115h-22q-46 63 -45 121q0 59 44 124zM217 -28h-23q41 62 38 128q2 44 -37 117h22q47 -68 45 -123q1 -60 -45 -122zM103 187v-187h-29v128h-40v24q41 -2 46 35h23zM228 44h-25v-44h-28v44h-75v26l80 117h23v-117h25
v-26zM175 138l-46 -68h46v68z" />
    <glyph glyph-name="uni2482" unicode="&#x2482;" 
d="M44 217h23q-24 -43 -30 -66q-7 -26 -7 -64q-2 -45 37 -115h-22q-46 63 -45 121q0 59 44 124zM217 -28h-23q41 62 38 128q2 44 -37 117h22q47 -68 45 -123q1 -60 -45 -122zM143 159l-6 -40q9 8 29 8q56 -5 59 -60q-4 -66 -65 -67q-52 1 -58 56h28q3 -29 33 -30q31 2 33 38
q-1 34 -35 36q-17 -1 -30 -16l-23 1l13 102h95v-28h-73zM103 186v-185h-29v127h-40v24q41 -2 46 34h23z" />
    <glyph glyph-name="uni2483" unicode="&#x2483;" 
d="M44 217h23q-24 -43 -30 -66q-7 -26 -7 -64q-2 -45 37 -115h-22q-46 63 -45 121q0 59 44 124zM217 -28h-23q41 62 38 128q2 44 -37 117h22q47 -68 45 -123q1 -60 -45 -122zM105 187v-186h-29v127h-41v24q42 -1 47 35h23zM223 135h-27q-5 28 -27 28q-34 -2 -37 -53
q9 14 37 14q56 -5 58 -60q1 -28 -18 -47q-13 -20 -46 -19q-30 1 -47 27q-14 23 -14 65q3 97 67 99q50 -3 54 -54zM134 61q2 -34 33 -36q30 2 31 38q-2 33 -32 34q-31 -1 -32 -36z" />
    <glyph glyph-name="uni2484" unicode="&#x2484;" 
d="M44 217h23q-24 -43 -30 -66q-7 -26 -7 -64q-2 -45 37 -115h-22q-46 63 -45 121q0 59 44 124zM217 -28h-23q41 62 38 128q2 44 -37 117h22q47 -68 45 -123q1 -60 -45 -122zM100 187v-187h-28v128h-39v24q40 -2 45 35h22zM104 185h113v-24q-53 -68 -67 -159h-29
q12 83 64 154h-81v29z" />
    <glyph glyph-name="uni2485" unicode="&#x2485;" 
d="M44 217h23q-24 -43 -30 -66q-7 -26 -7 -64q-2 -45 37 -115h-22q-46 63 -45 121q0 59 44 124zM217 -28h-23q41 62 38 128q2 44 -37 117h22q47 -68 45 -123q1 -60 -45 -122zM105 187v-186h-29v127h-41v24q42 -1 47 35h23zM221 140q0 -30 -18 -38q23 -10 24 -44
q-3 -58 -62 -60q-26 1 -44 15q-20 17 -19 45q0 33 25 43q-18 8 -19 35q4 51 56 53q53 -2 57 -49zM165 88q-31 -1 -33 -31q2 -31 34 -32q31 0 31 31q-1 30 -32 32zM164 113q26 1 28 26q-2 23 -29 24q-25 0 -26 -26q2 -22 27 -24z" />
    <glyph glyph-name="uni2486" unicode="&#x2486;" 
d="M44 217h23q-24 -43 -30 -66q-7 -26 -7 -64q-2 -45 37 -115h-22q-46 63 -45 121q0 59 44 124zM217 -28h-23q41 62 38 128q2 44 -37 117h22q47 -68 45 -123q1 -60 -45 -122zM106 52h28q4 -29 27 -29q31 -1 38 64v-10q-7 -13 -37 -14q-54 3 -57 61q3 62 58 65q64 0 64 -87
q-3 -102 -66 -104q-50 2 -55 54zM165 90q31 1 31 37q-2 35 -32 36q-29 -2 -31 -38q0 -35 32 -35zM105 186v-185h-29v127h-41v24q42 -1 47 34h23z" />
    <glyph glyph-name="uni2487" unicode="&#x2487;" 
d="M44 217h23q-24 -43 -30 -66q-7 -26 -7 -64q-2 -45 37 -115h-22q-46 63 -45 121q0 59 44 124zM217 -28h-23q41 62 38 128q2 44 -37 117h22q47 -68 45 -123q1 -60 -45 -122zM73 116h-22q0 70 47 71q42 -3 44 -57q1 -39 -35 -62l-14 -10q-20 -16 -21 -30h70v-27h-95
q1 54 32 76l17 14q25 16 23 40q-2 28 -23 29q-22 0 -23 -44zM210 93q-1 69 -24 70q-25 -1 -25 -70q0 -67 25 -68q24 1 24 68zM233 93q-1 -94 -47 -95q-47 1 -48 95q1 95 48 96q46 -1 47 -96z" />
    <glyph glyph-name="uni2488" unicode="&#x2488;" 
d="M124 187v-186h-30v127h-42v24q43 -2 48 35h24zM210 29v-28h-27v28h27z" />
    <glyph glyph-name="uni2489" unicode="&#x2489;" 
d="M71 116h-29q1 69 65 71q57 -3 60 -57q2 -39 -50 -63l-19 -11q-26 -14 -28 -28h97v-27h-129q1 53 44 77l24 14q33 15 31 39q-3 28 -33 29q-32 0 -33 -44zM225 29v-28h-28v28h28z" />
    <glyph glyph-name="uni248A" unicode="&#x248a;" 
d="M86 86v25h15q30 1 31 26q-2 25 -30 26q-27 0 -33 -34v-5h-28q2 64 62 65q55 -2 58 -51q-1 -31 -17 -37q24 -8 24 -42q-3 -59 -68 -61q-20 0 -34 8q-26 12 -29 58h29q1 -40 36 -40q34 2 36 32q0 30 -39 30h-13zM225 29v-28h-28v28h28z" />
    <glyph glyph-name="uni248B" unicode="&#x248b;" 
d="M170 44h-26v-43h-29v43h-78v26l83 117h24v-117h26v-26zM115 139l-49 -69h49v69zM226 29v-28h-28v28h28z" />
    <glyph glyph-name="uni248C" unicode="&#x248c;" 
d="M81 159l-7 -39q10 7 31 7q58 -5 62 -61q-4 -65 -68 -66q-55 1 -61 56h29q3 -29 35 -30q32 2 35 38q-2 35 -37 37q-19 0 -32 -17l-24 1l14 102h99v-28h-76zM225 29v-28h-28v28h28z" />
    <glyph glyph-name="uni248D" unicode="&#x248d;" 
d="M163 135h-28q-5 28 -28 28q-36 -2 -39 -53q9 14 39 14q58 -6 60 -61q1 -27 -19 -47q-15 -19 -47 -18t-50 27q-13 23 -13 65q3 97 69 99q51 -3 56 -54zM70 61q3 -35 35 -37q30 2 32 38q-2 34 -33 35q-32 -1 -34 -36zM224 29v-28h-27v28h27z" />
    <glyph glyph-name="uni248E" unicode="&#x248e;" 
d="M37 156v29h131v-24q-59 -67 -74 -159h-31q12 82 70 154h-96zM225 29v-28h-28v28h28z" />
    <glyph glyph-name="uni248F" unicode="&#x248f;" 
d="M160 140q0 -30 -19 -38q24 -11 25 -44q-3 -58 -64 -60q-27 1 -45 15q-20 16 -19 45q0 34 25 43q-18 8 -19 35q4 52 57 53q55 -2 59 -49zM102 87q-32 -1 -34 -30q2 -32 35 -33q33 1 33 31q-1 31 -34 32zM102 113q27 2 29 26q-2 23 -31 24q-26 -1 -27 -26q2 -22 29 -24z
M224 29v-28h-27v28h27z" />
    <glyph glyph-name="uni2490" unicode="&#x2490;" 
d="M40 52h29q2 -28 27 -29q34 -2 40 64v-10q-7 -12 -38 -14q-58 3 -60 61q4 62 61 65q66 -1 66 -87q-3 -102 -68 -104q-53 1 -57 54zM101 89q31 2 32 38q-1 35 -34 36q-30 -2 -32 -38q0 -36 34 -36zM224 29v-28h-28v28h28z" />
    <glyph glyph-name="uni2491" unicode="&#x2491;" 
d="M85 186v-185h-29v127h-41v24q42 -2 47 34h23zM195 93q-1 69 -34 70q-33 -1 -33 -70q0 -68 33 -68q33 1 34 68zM224 93q-2 -94 -63 -95q-61 1 -62 95q1 95 62 96q61 -1 63 -96zM247 29v-28h-27v28h27z" />
    <glyph glyph-name="uni2492" unicode="&#x2492;" 
d="M92 187v-187h-29v128h-41v24q42 -1 47 35h23zM192 187v-187h-29v128h-40v24q41 -2 46 35h23zM240 29v-28h-28v28h28z" />
    <glyph glyph-name="uni2493" unicode="&#x2493;" 
d="M83 187v-187h-28v128h-39v24q40 -2 45 35h22zM121 116h-26q1 70 60 71q51 -4 54 -57q2 -39 -46 -64l-16 -10q-23 -13 -26 -28h88v-28h-118q1 54 39 78l22 13q1 1 4 3q27 14 25 37q-2 28 -29 29q-30 0 -31 -44zM246 29v-28h-28v28h28z" />
    <glyph glyph-name="uni2494" unicode="&#x2494;" 
d="M86 186v-185h-29v127h-40v24q41 -2 46 34h23zM140 86v25h14q30 1 30 26q-2 25 -29 26q-30 0 -31 -39h-27q2 64 59 65q54 -2 57 -51q-1 -31 -17 -37q23 -8 23 -42q-3 -59 -65 -61q-17 0 -33 8q-26 15 -28 58h28q1 -39 34 -39q33 2 35 31q0 30 -37 30h-13zM245 29v-28h-27
v28h27z" />
    <glyph glyph-name="uni2495" unicode="&#x2495;" 
d="M86 187v-187h-29v128h-41v24q42 -1 47 35h23zM221 44h-26v-44h-27v44h-76v26l81 117h22v-117h26v-26zM172 145l-51 -75h47v75h4zM246 29v-28h-28v28h28z" />
    <glyph glyph-name="uni2496" unicode="&#x2496;" 
d="M136 159l-7 -40q11 8 29 8q56 -5 60 -60q-4 -66 -65 -67q-53 1 -59 56h28q4 -30 34 -30q31 2 33 38q-1 34 -35 36q-18 0 -31 -16l-22 1l13 102h94v-28h-72zM85 186v-185h-29v127h-40v24q42 -1 46 34h23zM246 29v-28h-28v28h28z" />
    <glyph glyph-name="uni2497" unicode="&#x2497;" 
d="M86 186v-185h-29v127h-40v24q41 -2 46 34h23zM215 135h-27q-5 28 -27 28q-34 -2 -37 -53q9 14 37 14q56 -5 58 -60q1 -28 -18 -47q-13 -20 -46 -19q-30 1 -47 27q-14 23 -14 65q3 97 67 99q50 -3 54 -54zM126 61q2 -34 33 -36q30 2 31 38q-2 33 -32 34q-31 -1 -32 -36z
M245 29v-28h-27v28h27z" />
    <glyph glyph-name="uni2498" unicode="&#x2498;" 
d="M84 187v-187h-29v128h-39v24q40 -2 45 35h23zM91 156v29h120v-24q-54 -68 -68 -159h-28q11 83 64 154h-88zM247 29v-28h-28v28h28z" />
    <glyph glyph-name="uni2499" unicode="&#x2499;" 
d="M86 186v-185h-29v127h-40v24q41 -2 46 34h23zM213 140q0 -29 -18 -38q23 -10 24 -44q-3 -58 -62 -60q-26 1 -43 15q-20 17 -19 45q0 34 24 43q-17 8 -18 35q4 52 55 53q53 -2 57 -49zM157 88q-31 -1 -33 -31q2 -31 34 -32q32 0 32 31q-1 31 -33 32zM157 113q25 2 27 26
q-2 23 -29 24q-25 -1 -26 -26q2 -22 28 -24zM246 29v-28h-28v28h28z" />
    <glyph glyph-name="uni249A" unicode="&#x249a;" 
d="M99 52h27q4 -29 27 -29q31 -1 38 64v-10q-7 -13 -37 -14q-54 3 -57 61q3 62 58 65q64 0 64 -87q-3 -102 -66 -104q-50 1 -54 54zM157 90q31 1 31 37q-2 35 -32 36q-29 -2 -31 -38q0 -35 32 -35zM86 186v-185h-29v127h-40v24q41 -2 46 34h23zM245 29v-28h-27v28h27z" />
    <glyph glyph-name="uni249B" unicode="&#x249b;" 
d="M37 116h-26q1 68 59 70q52 -3 55 -56q2 -40 -46 -63l-16 -11q-25 -15 -27 -28h89v-27h-119q2 54 40 77l22 14q31 15 29 39q-3 28 -30 29q-28 0 -30 -44zM214 93q0 69 -32 70q-30 -1 -31 -70q0 -67 31 -68q32 1 32 68zM242 93q-2 -94 -60 -95q-57 1 -59 95q1 95 59 96
q59 -1 60 -96zM256 29v-28h-28v28h28z" />
    <glyph glyph-name="SF100000" unicode="&#x2500;" 
d="M0 99h262v-19h-262v19z" />
    <glyph glyph-name="uni2501" unicode="&#x2501;" 
d="M0 107h262v-35h-262v35z" />
    <glyph glyph-name="SF110000" unicode="&#x2502;" 
d="M140 221v-260h-19v260h19z" />
    <glyph glyph-name="uni2503" unicode="&#x2503;" 
d="M147 221v-260h-35v260h35z" />
    <glyph glyph-name="uni2504" unicode="&#x2504;" 
d="M14 99h62v-19h-62v19zM100 99h62v-19h-62v19zM186 99h62v-19h-62v19z" />
    <glyph glyph-name="uni2505" unicode="&#x2505;" 
d="M14 107h62v-35h-62v35zM100 107h62v-35h-62v35zM186 107h62v-35h-62v35z" />
    <glyph glyph-name="uni2506" unicode="&#x2506;" 
d="M120 207h19v-63h-19v63zM139 121v-63h-19v63h19zM139 35v-61h-19v61h19z" />
    <glyph glyph-name="uni2507" unicode="&#x2507;" 
d="M147 207v-63h-35v63h35zM147 121v-63h-35v63h35zM147 35v-61h-35v61h35z" />
    <glyph glyph-name="uni2508" unicode="&#x2508;" 
d="M12 99h46v-19h-46v19zM76 99h46v-19h-46v19zM140 99h46v-19h-46v19zM204 99h46v-19h-46v19z" />
    <glyph glyph-name="uni2509" unicode="&#x2509;" 
d="M12 107h46v-35h-46v35zM76 107h46v-35h-46v35zM140 107h46v-35h-46v35zM204 107h46v-35h-46v35z" />
    <glyph glyph-name="uni250A" unicode="&#x250a;" 
d="M139 209v-46h-19v46h19zM139 145v-46h-19v46h19zM139 81v-46h-19v46h19zM139 17v-44h-19v44h19z" />
    <glyph glyph-name="uni250B" unicode="&#x250b;" 
d="M147 209v-46h-35v46h35zM147 145v-46h-35v46h35zM147 81v-46h-35v46h35zM147 17v-44h-35v44h35z" />
    <glyph glyph-name="SF010000" unicode="&#x250c;" 
d="M262 99v-19h-122v-119h-19v138h141z" />
    <glyph glyph-name="uni250D" unicode="&#x250d;" 
d="M262 107v-35h-122v-111h-19v146h141z" />
    <glyph glyph-name="uni250E" unicode="&#x250e;" 
d="M262 99v-19h-114v-119h-35v138h149z" />
    <glyph glyph-name="uni250F" unicode="&#x250f;" 
d="M262 107v-35h-114v-111h-35v146h149z" />
    <glyph glyph-name="SF030000" unicode="&#x2510;" 
d="M0 80v19h140v-138h-19v119h-121z" />
    <glyph glyph-name="uni2511" unicode="&#x2511;" 
d="M0 107h140v-146h-19v111h-121v35z" />
    <glyph glyph-name="uni2512" unicode="&#x2512;" 
d="M0 99h148v-138h-35v119h-113v19z" />
    <glyph glyph-name="uni2513" unicode="&#x2513;" 
d="M0 107h148v-146h-35v111h-113v35z" />
    <glyph glyph-name="SF020000" unicode="&#x2514;" 
d="M140 221v-122h122v-19h-141v141h19z" />
    <glyph glyph-name="uni2515" unicode="&#x2515;" 
d="M140 221v-114h122v-35h-141v149h19z" />
    <glyph glyph-name="uni2516" unicode="&#x2516;" 
d="M148 221v-122h114v-19h-149v141h35z" />
    <glyph glyph-name="uni2517" unicode="&#x2517;" 
d="M148 221v-114h114v-35h-149v149h35z" />
    <glyph glyph-name="SF040000" unicode="&#x2518;" 
d="M0 99h121v122h19v-141h-140v19z" />
    <glyph glyph-name="uni2519" unicode="&#x2519;" 
d="M0 107h121v114h19v-149h-140v35z" />
    <glyph glyph-name="uni251A" unicode="&#x251a;" 
d="M0 99h113v122h35v-141h-148v19z" />
    <glyph glyph-name="uni251B" unicode="&#x251b;" 
d="M0 107h113v114h35v-149h-148v35z" />
    <glyph glyph-name="SF080000" unicode="&#x251c;" 
d="M140 221v-122h122v-19h-122v-119h-19v260h19z" />
    <glyph glyph-name="uni251D" unicode="&#x251d;" 
d="M140 221v-114h122v-35h-122v-111h-19v260h19z" />
    <glyph glyph-name="uni251E" unicode="&#x251e;" 
d="M148 221v-122h114v-19h-122v-119h-19v127h-8v133h35z" />
    <glyph glyph-name="uni251F" unicode="&#x251f;" 
d="M140 221v-122h122v-19h-114v-119h-35v130h8v130h19z" />
    <glyph glyph-name="uni2520" unicode="&#x2520;" 
d="M148 221v-122h114v-19h-114v-119h-35v260h35z" />
    <glyph glyph-name="uni2521" unicode="&#x2521;" 
d="M148 221v-114h114v-35h-122v-111h-19v111h-8v149h35z" />
    <glyph glyph-name="uni2522" unicode="&#x2522;" 
d="M140 221v-114h122v-35h-114v-111h-35v146h8v114h19z" />
    <glyph glyph-name="uni2523" unicode="&#x2523;" 
d="M148 221v-114h114v-35h-114v-111h-35v260h35z" />
    <glyph glyph-name="SF090000" unicode="&#x2524;" 
d="M140 221v-260h-19v119h-121v19h121v122h19z" />
    <glyph glyph-name="uni2525" unicode="&#x2525;" 
d="M140 221v-260h-19v111h-121v35h121v114h19z" />
    <glyph glyph-name="uni2526" unicode="&#x2526;" 
d="M148 221v-133h-8v-127h-19v119h-121v19h113v122h35z" />
    <glyph glyph-name="uni2527" unicode="&#x2527;" 
d="M140 221v-130h8v-130h-35v119h-113v19h121v122h19z" />
    <glyph glyph-name="uni2528" unicode="&#x2528;" 
d="M148 221v-260h-35v119h-113v19h113v122h35z" />
    <glyph glyph-name="uni2529" unicode="&#x2529;" 
d="M148 221v-149h-8v-111h-19v111h-121v35h113v114h35z" />
    <glyph glyph-name="uni252A" unicode="&#x252a;" 
d="M140 221v-114h8v-146h-35v111h-113v35h121v114h19z" />
    <glyph glyph-name="uni252B" unicode="&#x252b;" 
d="M148 221v-260h-35v111h-113v35h113v114h35z" />
    <glyph glyph-name="SF060000" unicode="&#x252c;" 
d="M0 99h262v-19h-122v-119h-19v119h-121v19z" />
    <glyph glyph-name="uni252D" unicode="&#x252d;" 
d="M0 107h140v-8h122v-19h-122v-120h-19v112h-121v35z" />
    <glyph glyph-name="uni252E" unicode="&#x252e;" 
d="M0 99h121v8h141v-35h-122v-111h-19v119h-121v19z" />
    <glyph glyph-name="uni252F" unicode="&#x252f;" 
d="M0 107h262v-35h-122v-111h-19v111h-121v35z" />
    <glyph glyph-name="uni2530" unicode="&#x2530;" 
d="M0 99h262v-19h-114v-119h-35v119h-113v19z" />
    <glyph glyph-name="uni2531" unicode="&#x2531;" 
d="M0 107h148v-8h114v-19h-114v-119h-35v111h-113v35z" />
    <glyph glyph-name="uni2532" unicode="&#x2532;" 
d="M0 99h113v8h149v-35h-114v-111h-35v119h-113v19z" />
    <glyph glyph-name="uni2533" unicode="&#x2533;" 
d="M0 107h262v-35h-114v-111h-35v111h-113v35z" />
    <glyph glyph-name="SF070000" unicode="&#x2534;" 
d="M0 99h121v122h19v-122h122v-19h-262v19z" />
    <glyph glyph-name="uni2535" unicode="&#x2535;" 
d="M140 221v-122h122v-19h-122v-8h-140v35h121v114h19z" />
    <glyph glyph-name="uni2536" unicode="&#x2536;" 
d="M140 221v-114h122v-35h-141v8h-121v19h121v122h19z" />
    <glyph glyph-name="uni2537" unicode="&#x2537;" 
d="M140 221v-114h122v-35h-262v35h121v114h19z" />
    <glyph glyph-name="uni2538" unicode="&#x2538;" 
d="M148 221v-122h114v-19h-262v19h113v122h35z" />
    <glyph glyph-name="uni2539" unicode="&#x2539;" 
d="M148 221v-122h114v-19h-114v-8h-148v35h113v114h35z" />
    <glyph glyph-name="uni253A" unicode="&#x253a;" 
d="M148 221v-114h114v-35h-149v8h-113v19h113v122h35z" />
    <glyph glyph-name="uni253B" unicode="&#x253b;" 
d="M148 221v-114h114v-35h-262v35h113v114h35z" />
    <glyph glyph-name="SF050000" unicode="&#x253c;" 
d="M140 221v-122h122v-19h-122v-119h-19v119h-121v19h121v122h19z" />
    <glyph glyph-name="uni253D" unicode="&#x253d;" 
d="M140 221v-122h122v-19h-122v-119h-19v111h-121v35h121v114h19z" />
    <glyph glyph-name="uni253E" unicode="&#x253e;" 
d="M140 221v-114h122v-35h-122v-111h-19v119h-121v19h121v122h19z" />
    <glyph glyph-name="uni253F" unicode="&#x253f;" 
d="M140 221v-114h122v-35h-122v-111h-19v111h-121v35h121v114h19z" />
    <glyph glyph-name="uni2540" unicode="&#x2540;" 
d="M148 221v-122h114v-19h-122v-119h-19v119h-121v19h113v122h35z" />
    <glyph glyph-name="uni2541" unicode="&#x2541;" 
d="M140 221v-122h122v-19h-114v-119h-35v119h-113v19h121v122h19z" />
    <glyph glyph-name="uni2542" unicode="&#x2542;" 
d="M148 221v-122h114v-19h-114v-119h-35v119h-113v19h113v122h35z" />
    <glyph glyph-name="uni2543" unicode="&#x2543;" 
d="M148 221v-122h114v-19h-122v-119h-19v111h-121v35h113v114h35z" />
    <glyph glyph-name="uni2544" unicode="&#x2544;" 
d="M148 221v-114h114v-35h-122v-111h-19v119h-121v19h113v122h35z" />
    <glyph glyph-name="uni2545" unicode="&#x2545;" 
d="M140 221v-122h122v-19h-114v-119h-35v111h-113v35h121v114h19z" />
    <glyph glyph-name="uni2546" unicode="&#x2546;" 
d="M140 221v-114h122v-35h-114v-111h-35v119h-113v19h121v122h19z" />
    <glyph glyph-name="uni2547" unicode="&#x2547;" 
d="M148 221v-114h114v-35h-122v-111h-19v111h-121v35h113v114h35z" />
    <glyph glyph-name="uni2548" unicode="&#x2548;" 
d="M140 221v-114h122v-35h-114v-111h-35v111h-113v35h121v114h19z" />
    <glyph glyph-name="uni2549" unicode="&#x2549;" 
d="M148 221v-122h114v-19h-114v-119h-35v111h-113v35h113v114h35z" />
    <glyph glyph-name="uni254A" unicode="&#x254a;" 
d="M148 221v-114h114v-35h-114v-111h-35v119h-113v19h113v122h35z" />
    <glyph glyph-name="uni254B" unicode="&#x254b;" 
d="M148 221v-114h114v-35h-114v-111h-35v111h-113v35h113v114h35z" />
    <glyph glyph-name="SF430000" unicode="&#x2550;" 
d="M262 113v-19h-262v19h262zM262 86v-19h-262v19h262z" />
    <glyph glyph-name="SF240000" unicode="&#x2551;" 
d="M127 221v-260h-19v260h19zM154 221v-260h-19v260h19z" />
    <glyph glyph-name="SF510000" unicode="&#x2552;" 
d="M262 94h-122v-8h122v-19h-122v-106h-19v152h141v-19z" />
    <glyph glyph-name="SF520000" unicode="&#x2553;" 
d="M262 80h-108v-119h-19v119h-8v-119h-19v138h154v-19z" />
    <glyph glyph-name="SF390000" unicode="&#x2554;" 
d="M262 94h-135v-133h-19v152h154v-19zM262 67h-108v-106h-19v125h127v-19z" />
    <glyph glyph-name="SF220000" unicode="&#x2555;" 
d="M140 113v-152h-19v106h-121v19h121v8h-121v19h140z" />
    <glyph glyph-name="SF210000" unicode="&#x2556;" 
d="M154 99v-138h-19v119h-8v-119h-19v119h-108v19h154z" />
    <glyph glyph-name="SF250000" unicode="&#x2557;" 
d="M154 113v-152h-19v133h-135v19h154zM127 86v-125h-19v106h-108v19h127z" />
    <glyph glyph-name="SF500000" unicode="&#x2558;" 
d="M140 113h122v-19h-122v-8h122v-19h-141v154h19v-108z" />
    <glyph glyph-name="SF490000" unicode="&#x2559;" 
d="M154 99h108v-19h-154v141h19v-122h8v122h19v-122z" />
    <glyph glyph-name="SF380000" unicode="&#x255a;" 
d="M154 113h108v-19h-127v127h19v-108zM127 221v-135h135v-19h-154v154h19z" />
    <glyph glyph-name="SF280000" unicode="&#x255b;" 
d="M121 221h19v-154h-140v19h121v8h-121v19h121v108z" />
    <glyph glyph-name="SF270000" unicode="&#x255c;" 
d="M127 221v-122h8v122h19v-141h-154v19h108v122h19z" />
    <glyph glyph-name="SF260000" unicode="&#x255d;" 
d="M127 221v-127h-127v19h108v108h19zM154 221v-154h-154v19h135v135h19z" />
    <glyph glyph-name="SF360000" unicode="&#x255e;" 
d="M140 113h122v-19h-122v-8h122v-19h-122v-106h-19v260h19v-108z" />
    <glyph glyph-name="SF370000" unicode="&#x255f;" 
d="M154 221v-122h108v-19h-108v-119h-19v260h19zM127 221v-260h-19v260h19z" />
    <glyph glyph-name="SF420000" unicode="&#x2560;" 
d="M154 113h108v-19h-127v127h19v-108zM262 67h-108v-106h-19v125h127v-19zM127 221v-260h-19v260h19z" />
    <glyph glyph-name="SF190000" unicode="&#x2561;" 
d="M140 -39h-19v106h-121v19h121v8h-121v19h121v108h19v-260z" />
    <glyph glyph-name="SF200000" unicode="&#x2562;" 
d="M127 221v-260h-19v119h-108v19h108v122h19zM154 221v-260h-19v260h19z" />
    <glyph glyph-name="SF230000" unicode="&#x2563;" 
d="M127 221v-127h-127v19h108v108h19zM127 86v-125h-19v106h-108v19h127zM154 221v-260h-19v260h19z" />
    <glyph glyph-name="SF470000" unicode="&#x2564;" 
d="M262 86v-19h-122v-106h-19v106h-121v19h262zM262 113v-19h-262v19h262z" />
    <glyph glyph-name="SF480000" unicode="&#x2565;" 
d="M262 99v-19h-108v-119h-19v119h-8v-119h-19v119h-108v19h262z" />
    <glyph glyph-name="SF410000" unicode="&#x2566;" 
d="M127 86v-125h-19v106h-108v19h127zM262 67h-108v-106h-19v125h127v-19zM262 113v-19h-262v19h262z" />
    <glyph glyph-name="SF450000" unicode="&#x2567;" 
d="M0 113h121v108h19v-108h122v-19h-262v19zM262 86v-19h-262v19h262z" />
    <glyph glyph-name="SF460000" unicode="&#x2568;" 
d="M108 99v122h19v-122h8v122h19v-122h108v-19h-262v19h108z" />
    <glyph glyph-name="SF400000" unicode="&#x2569;" 
d="M127 221v-127h-127v19h108v108h19zM154 113h108v-19h-127v127h19v-108zM262 86v-19h-262v19h262z" />
    <glyph glyph-name="SF540000" unicode="&#x256a;" 
d="M121 86v8h-121v19h121v108h19v-108h122v-19h-122v-8h122v-19h-122v-106h-19v106h-121v19h121z" />
    <glyph glyph-name="SF530000" unicode="&#x256b;" 
d="M127 221v-122h8v122h19v-122h108v-19h-108v-119h-19v119h-8v-119h-19v119h-108v19h108v122h19z" />
    <glyph glyph-name="SF440000" unicode="&#x256c;" 
d="M127 221v-127h-127v19h108v108h19zM154 113h108v-19h-127v127h19v-108zM127 86v-125h-19v106h-108v19h127zM262 67h-108v-106h-19v125h127v-19z" />
    <glyph glyph-name="uni256D" unicode="&#x256d;" 
d="M262 95v-14q-111 -10 -122 -120h-15q11 123 137 134z" />
    <glyph glyph-name="uni256E" unicode="&#x256e;" 
d="M0 81v14q126 -11 137 -134h-15q-11 110 -122 120z" />
    <glyph glyph-name="uni256F" unicode="&#x256f;" 
d="M122 221h15q-11 -126 -137 -137v14q112 10 122 123z" />
    <glyph glyph-name="uni2570" unicode="&#x2570;" 
d="M262 98v-14q-126 11 -137 137h15q10 -113 122 -123z" />
    <glyph glyph-name="uni2571" unicode="&#x2571;" 
d="M251 191l-222 -220l-15 12l225 222z" />
    <glyph glyph-name="uni2572" unicode="&#x2572;" 
d="M262 -26l-11 -12l-250 248l11 12z" />
    <glyph glyph-name="uni2573" unicode="&#x2573;" 
d="M132 102l119 120l11 -12l-119 -120l119 -116l-11 -12l-119 116l-120 -116l-11 12l120 116l-120 120l11 12z" />
    <glyph glyph-name="uni2581" unicode="&#x2581;" 
d="M0 0h262v-35h-262v35z" />
    <glyph glyph-name="uni2582" unicode="&#x2582;" 
d="M0 30h262v-66h-262v66z" />
    <glyph glyph-name="uni2583" unicode="&#x2583;" 
d="M0 62h261v-98h-261v98z" />
    <glyph glyph-name="dnblock" unicode="&#x2584;" 
d="M0 93h261v-129h-261v129z" />
    <glyph glyph-name="uni2585" unicode="&#x2585;" 
d="M0 126h261v-162h-261v162z" />
    <glyph glyph-name="uni2586" unicode="&#x2586;" 
d="M0 158h262v-193h-262v193z" />
    <glyph glyph-name="uni2587" unicode="&#x2587;" 
d="M0 190h262v-226h-262v226z" />
    <glyph glyph-name="block" unicode="&#x2588;" 
d="M0 224h262v-260h-262v260z" />
    <glyph glyph-name="uni2589" unicode="&#x2589;" 
d="M228 -39h-228v260h228v-260z" />
    <glyph glyph-name="uni258A" unicode="&#x258a;" 
d="M197 -39h-197v260h197v-260z" />
    <glyph glyph-name="uni258B" unicode="&#x258b;" 
d="M166 -39h-166v260h166v-260z" />
    <glyph glyph-name="lfblock" unicode="&#x258c;" 
d="M134 -39h-134v260h134v-260z" />
    <glyph glyph-name="uni258D" unicode="&#x258d;" 
d="M102 -39h-102v260h102v-260z" />
    <glyph glyph-name="uni258E" unicode="&#x258e;" 
d="M70 -39h-70v260h70v-260z" />
    <glyph glyph-name="uni258F" unicode="&#x258f;" 
d="M38 -39h-38v260h38v-260z" />
    <glyph glyph-name="dkshade" unicode="&#x2593;" 
d="M0 -39v260h262v-260h-262zM46 197h-18v-10h18v10zM73 164h-19v-11h19v11zM46 130h-18v-11h18v11zM73 96h-19v-11h19v11zM46 62h-18v-11h18v11zM73 28h-19v-11h19v11zM100 197h-19v-10h19v10zM127 164h-19v-11h19v11zM100 130h-19v-11h19v11zM127 96h-19v-11h19v11z
M100 62h-19v-11h19v11zM127 28h-19v-11h19v11zM100 -5h-19v-11h19v11zM154 197h-19v-10h19v10zM181 164h-19v-11h19v11zM154 130h-19v-11h19v11zM181 96h-19v-11h19v11zM154 62h-19v-11h19v11zM181 28h-19v-11h19v11zM154 -5h-19v-11h19v11zM209 197h-19v-10h19v10zM234 164
h-19v-11h19v11zM209 130h-19v-11h19v11zM234 96h-19v-11h19v11zM209 62h-19v-11h19v11zM234 28h-19v-11h19v11zM209 -5h-19v-11h19v11zM46 -5h-18v-11h18v11z" />
    <glyph glyph-name="uni2594" unicode="&#x2594;" 
d="M262 221v-37h-262v37h262z" />
    <glyph glyph-name="uni2595" unicode="&#x2595;" 
d="M262 -39h-37v260h37v-260z" />
    <glyph glyph-name="filledbox" unicode="&#x25a0;" 
d="M236 -17h-210v208h210v-208z" />
    <glyph glyph-name="H22073" unicode="&#x25a1;" 
d="M236 -17h-210v208h210v-208zM43 174v-174h176v174h-176z" />
    <glyph glyph-name="triagup" unicode="&#x25b2;" 
d="M231 -3h-196l98 198z" />
    <glyph glyph-name="uni25B3" unicode="&#x25b3;" 
d="M133 157l-71 -143h142zM231 -3h-196l98 198z" />
    <glyph glyph-name="triagdn" unicode="&#x25bc;" 
d="M133 -9l-98 196h196z" />
    <glyph glyph-name="uni25BD" unicode="&#x25bd;" 
d="M62 171l71 -143l71 143h-142zM35 187h196l-98 -196z" />
    <glyph glyph-name="uni25C6" unicode="&#x25c6;" 
d="M132 -4l-100 98l100 100l100 -100z" />
    <glyph glyph-name="uni25C7" unicode="&#x25c7;" 
d="M132 17l77 77l-77 77l-77 -77zM132 -4l-100 98l100 100l100 -100z" />
    <glyph glyph-name="circle" unicode="&#x25cb;" 
d="M131 12q72 7 79 79q-7 73 -79 80q-72 -7 -79 -80q7 -72 79 -79zM131 187q88 -8 96 -96q-8 -87 -96 -94q-88 7 -96 94q8 88 96 96z" />
    <glyph glyph-name="uni25CE" unicode="&#x25ce;" 
d="M131 187q88 -8 96 -96q-8 -87 -96 -94q-88 7 -96 94q8 88 96 96zM131 175q-76 -7 -84 -84q8 -75 84 -83q76 8 84 83q-7 77 -84 84zM131 159q62 -6 68 -67q-5 -62 -68 -68q-62 6 -68 68q6 61 68 67zM131 146q-50 -5 -55 -54q5 -50 55 -55q50 5 55 55q-5 49 -55 54z" />
    <glyph glyph-name="H18533" unicode="&#x25cf;" 
d="M131 187q88 -8 96 -96q-8 -87 -96 -94q-88 7 -96 94q8 88 96 96z" />
    <glyph glyph-name="uni25E2" unicode="&#x25e2;" 
d="M245 -20h-213l213 225v-225z" />
    <glyph glyph-name="uni25E3" unicode="&#x25e3;" 
d="M16 -20v221l215 -221h-215z" />
    <glyph glyph-name="uni25E4" unicode="&#x25e4;" 
d="M13 208h224l-224 -215v215z" />
    <glyph glyph-name="uni25E5" unicode="&#x25e5;" 
d="M247 211v-222l-215 222h215z" />
    <glyph glyph-name="uni2605" unicode="&#x2605;" 
d="M137 188l26 -76h78l-64 -48l23 -73l-63 42l-63 -42l23 73l-64 48h78z" />
    <glyph glyph-name="uni2606" unicode="&#x2606;" 
d="M92 16l45 34l45 -33l-2 -2l-19 54l41 30h-50l-17 55h3l-17 -55h-49l39 -30l-17 -55zM137 188l26 -76h78l-64 -48l23 -73l-63 43l-63 -43l22 73l-63 48h78z" />
    <glyph glyph-name="uni2609" unicode="&#x2609;" 
d="M131 73q-16 2 -18 18q2 17 18 18q17 -1 18 -18q-1 -16 -18 -18zM131 12q72 7 79 79q-7 73 -79 80q-72 -7 -79 -80q7 -72 79 -79zM131 187q88 -8 96 -96q-8 -87 -96 -94q-88 7 -96 94q8 88 96 96z" />
    <glyph glyph-name="female" unicode="&#x2640;" 
d="M89 129q3 -39 42 -42q39 3 42 42q-3 39 -42 42q-39 -3 -42 -42zM84 16v18h38v37q-47 8 -51 58q5 55 60 60q55 -5 60 -60q-4 -50 -51 -58v-37h38v-18h-38v-29h-18v29h-38z" />
    <glyph glyph-name="male" unicode="&#x2642;" 
d="M89 46q4 -39 42 -43q38 4 42 43q-4 38 -42 42q-38 -4 -42 -42zM86 133l-6 10q35 24 47 45h9q9 -17 39 -39q3 -3 7 -4l-4 -12q-26 10 -38 23v-52q47 -8 51 -58q-4 -53 -60 -58q-56 5 -60 58q4 50 51 58v51q-12 -11 -36 -22z" />
    <glyph glyph-name="uni3001" unicode="&#x3001;" 
d="M39 37l14 13l54 -60l-15 -13z" />
    <glyph glyph-name="uni3002" unicode="&#x3002;" 
d="M59 13q2 -18 22 -20q19 2 21 20q-2 19 -21 21q-20 -2 -22 -21zM44 13q3 34 37 37q34 -3 37 -37q-3 -32 -37 -35q-34 3 -37 35z" />
    <glyph glyph-name="uni3003" unicode="&#x3003;" 
d="M137 131l-46 -89h-10l29 88q4 11 14 14q13 0 13 -13zM182 131l-46 -89h-10l29 88q2 12 14 14q14 0 13 -13z" />
    <glyph glyph-name="uni3005" unicode="&#x3005;" 
d="M114 192l24 -12q3 0 3 -7q0 -5 -8 -8q-1 0 -2 -1q-6 -15 -13 -23h54q2 0 6 3q6 3 10 3q18 -12 23 -25q-1 -10 -9 -10h-6l-3 -3v-1q-24 -34 -49 -62q40 -31 7 -44q-10 0 -26 28q-4 6 -5 9q-13 18 -29 30l3 7q23 -8 37 -19q29 33 48 69l2 -1h-74q-24 -29 -48 -38q-8 2 -6 9
q29 23 44 49q14 24 7 37q2 13 10 10z" />
    <glyph glyph-name="uni3006" unicode="&#x3006;" 
d="M168 177q6 -9 -3 -23q-8 -11 -27 -34q-29 33 -53 21q-25 -11 -31 -42q-6 -32 -6 -51q0 -18 2 -28l1 -4q1 -1 4 1q8 6 18 15q10 10 65 72q8 -21 11 -24q2 -1 8 7t-11 26q29 33 35 42q2 2 3 6l7 7q1 2 -6 7q-7 6 -17 10l-2 1q-8 4 -9 3v1q7 -7 11 -13zM122 111
q-8 13 -18 16q-11 3 -17 0q-8 -3 -17 -16q-7 -11 -9 -33q-2 -24 -2 -30q0 -1 2 0q5 2 61 63z" />
    <glyph glyph-name="uni3007" unicode="&#x3007;" 
d="M131 205q107 -9 116 -116q-9 -105 -116 -114q-107 9 -116 114q9 107 116 116zM131 -3q88 6 95 92q-8 87 -95 95q-87 -8 -95 -95q7 -86 95 -92z" />
    <glyph glyph-name="uni3008" unicode="&#x3008;" 
d="M131 89l58 -126h-21l-56 126l55 129h21z" />
    <glyph glyph-name="uni3009" unicode="&#x3009;" 
d="M148 89l-56 -126h-21l57 126l-57 129h21z" />
    <glyph glyph-name="uni300A" unicode="&#x300a;" 
d="M120 89l58 -126h-21l-56 127l55 128h21zM157 89l57 -126h-21l-56 127l56 128h21z" />
    <glyph glyph-name="uni300B" unicode="&#x300b;" 
d="M163 90l-56 -127h-21l58 126l-57 129h20zM127 90l-56 -127h-21l57 126l-57 129h21z" />
    <glyph glyph-name="uni300C" unicode="&#x300c;" 
d="M119 -34v249h59v-16h-41v-233h-18z" />
    <glyph glyph-name="uni300D" unicode="&#x300d;" 
d="M143 215v-249h-60v16h42v233h18z" />
    <glyph glyph-name="uni300E" unicode="&#x300e;" 
d="M115 209h78v-33h-46v-203h-32v236zM126 198v-215h10v204h46v11h-56z" />
    <glyph glyph-name="uni300F" unicode="&#x300f;" 
d="M147 -27h-78v31h46v205h32v-236zM136 -17v215h-10v-203h-46v-12h56z" />
    <glyph glyph-name="uni3010" unicode="&#x3010;" 
d="M174 203q-28 -37 -29 -113q0 -75 38 -124h-65v249h56v-12z" />
    <glyph glyph-name="uni3011" unicode="&#x3011;" 
d="M84 -30q34 43 34 120q-1 75 -37 125h65v-249h-62v4z" />
    <glyph glyph-name="uni3012" unicode="&#x3012;" 
d="M246 197v-28h-231v28h231zM246 139v-28h-101v-136h-28v136h-102v28h231z" />
    <glyph glyph-name="uni3013" unicode="&#x3013;" 
d="M55 160h152v-46h-152v46zM55 77h152v-46h-152v46z" />
    <glyph glyph-name="uni3014" unicode="&#x3014;" 
d="M119 -14v207l59 19v-16l-41 -16v-182l41 -16v-16z" />
    <glyph glyph-name="uni3015" unicode="&#x3015;" 
d="M81 -19l41 17v181l-41 17v16l59 -20v-206l-59 -21v16z" />
    <glyph glyph-name="uni3016" unicode="&#x3016;" 
d="M116 217h74q-43 -48 -44 -127q1 -78 44 -125h-74v252zM127 206v-230h39q-31 42 -31 114q0 73 31 116h-39z" />
    <glyph glyph-name="uni3017" unicode="&#x3017;" 
d="M150 217v-252h-74q43 47 44 125q-1 79 -44 127h74zM139 206h-39q31 -43 31 -116q0 -72 -31 -114h39v230z" />
    <glyph glyph-name="uni301D" unicode="&#x301d;" 
d="M165 145l-39 42h37l26 -42h-24zM122 145l-39 42h37l26 -42h-24z" />
    <glyph glyph-name="uni301E" unicode="&#x301e;" 
d="M144 187l-40 -42h-23l26 42h37zM187 188l-40 -43h-23l26 43h37z" />
    <glyph glyph-name="uni3021" unicode="&#x3021;" 
d="M144 -17h-30q1 77 1 121q0 49 -2 88h30q-1 -49 -1 -107q1 -56 2 -102z" />
    <glyph glyph-name="uni3022" unicode="&#x3022;" 
d="M189 -19h-30v59q1 100 -1 150h30q-1 -49 -1 -107q1 -56 2 -102zM105 17h-30q3 72 0 145h29q-1 -29 0 -61q0 -26 1 -84z" />
    <glyph glyph-name="uni3023" unicode="&#x3023;" 
d="M210 -19h-30v59q1 100 -1 150h30q-3 -79 1 -209zM146 -3h-30q3 82 0 171h28v-98zM77 -12h-30v55q1 96 -1 143l30 -1q-3 -74 1 -197z" />
    <glyph glyph-name="uni33CE" unicode="&#x33ce;" 
d="M32 64v-67h-24v190h24v-83l60 83h33l-58 -77l59 -113h-31l-46 89zM254 -2h-24v111v11q1 24 1 32h4l-37 -154h-22l-33 132v-21v-111h-23v189h31l36 -145l36 145h31v-189z" />
    <glyph glyph-name="uni33D1" unicode="&#x33d1;" 
d="M239 91v-94h-25v85q1 35 -22 34q-27 -5 -28 -43v-76h-25v140h25l-1 -19h-4q14 23 38 23q41 -1 42 -50zM115 181v8q0 8 -4 11q-2 1 -6 -1q-4 -1 -11 -14q-6 -10 -11 -21q-15 -40 -15 -78v-8q0 -12 1 -18q15 16 22 31q24 43 24 90zM38 -2l-15 24q15 9 26 19q-4 16 -4 34v12
q0 55 26 107q0 1 2 3q10 16 17 22q11 11 20 11h4q22 -2 24 -42v-10q-1 -59 -31 -109q-15 -21 -30 -38q1 -3 7 -6t15 4q8 7 14 26l21 -13q-20 -45 -46 -45h-4q-11 0 -20 9q-5 5 -6 8q-6 -6 -20 -16z" />
    <glyph glyph-name="uni33D2" unicode="&#x33d2;" 
d="M91 68q3 68 43 71q39 -2 41 -71q-3 -68 -42 -71q-39 3 -42 71zM112 68q1 -46 21 -47q20 1 22 47q-2 46 -22 47q-20 -1 -21 -47zM236 23v1q-2 -4 -21 -4q-41 1 -42 62q2 55 40 57q19 0 24 -10v7h20v-113h6v-23h-6v-7q-1 -47 -41 -48q-38 1 -40 36q1 39 60 42zM237 74
q0 43 -21 43q-22 0 -22 -38q1 -36 21 -37q22 1 22 32zM236 -7v7q-36 -2 -39 -18q0 -11 19 -11q20 0 20 22zM79 181v8q0 8 -4 11q-1 1 -3 -1q-6 -2 -10 -14q-3 -5 -8 -17q-1 -4 -2 -5q-14 -37 -13 -76v-8q-1 -7 1 -18q1 -5 1 2l17 28q21 44 21 90zM13 -3l-13 25q12 9 21 18
q-5 17 -5 45q7 119 58 145h4q19 -2 21 -42v-10q-1 -56 -26 -108q-13 -22 -27 -39q2 -4 7 -6q4 -3 12 4q5 4 10 17q1 3 4 9l17 -13q-18 -45 -40 -45h-3q-13 0 -23 16q-5 -5 -17 -16z" />
    <glyph glyph-name="uni33D5" unicode="&#x33d5;" 
d="M22 -3v140h21v0q-6 -21 -4 -19q11 23 31 23t26 -17q9 18 29 17q32 -3 33 -48v-96h-23v90q0 28 -14 28q-18 -3 -20 -33v-85h-23v96q-1 22 -12 22q-21 -3 -22 -42v-76h-22zM199 156v-159h-25v159h25zM199 177h-25v32h25v-32zM240 213v-216h-24v216h24z" />
    <glyph glyph-name="uni4E00" unicode="&#x4e00;" 
d="M20 112h227v-15h-227v15z" />
    <glyph glyph-name="uni4E01" unicode="&#x4e01;" 
d="M138 166h-110v15h209v-15h-83l-1 -182h-66l-8 15h59v167z" />
    <glyph glyph-name="uni4E03" unicode="&#x4e03;" 
d="M237 41l-4 -62h-134v122l-82 -9v16l82 9v81h16v-80l126 13v-16l-126 -13v-108h102l4 56z" />
    <glyph glyph-name="uni4E07" unicode="&#x4e07;" 
d="M245 182v-15h-139l-2 -52h118h4l-4 -132h-91l-8 15h83l4 101h-107l-1 -28l-64 -88h-20l68 94l4 90h-66v15h221z" />
    <glyph glyph-name="uni4E08" unicode="&#x4e08;" 
d="M65 141l57 -45l33 42h-135v16h139v46h16v-46h72v-16h-72l-42 -53l106 -88v-21l-117 96l-75 -94h-20l84 105l-45 35z" />
    <glyph glyph-name="uni4E09" unicode="&#x4e09;" 
d="M43 100h177v-15h-177v15zM34 180h195v-16h-195v16zM18 8h226v-15h-226v15z" />
    <glyph glyph-name="uni4E0A" unicode="&#x4e0a;" 
d="M127 122h105v-15h-105v-106h118v-15h-229v15h95v192h16v-71z" />
    <glyph glyph-name="uni4E0B" unicode="&#x4e0b;" 
d="M138 132l83 -60v-21l-83 61v20zM127 171v-191h-16v191h-95v15h227v-15h-116z" />
    <glyph glyph-name="uni4E0C" unicode="&#x4e0c;" 
d="M10 188h244v-20h-61v-197h-20v197h-81v-27q-1 -20 -1 -31q1 -100 -66 -141l-5 5q-1 2 -11 10q38 25 48 49q12 24 13 77q1 28 1 58h-61v20z" />
    <glyph glyph-name="uni4E0D" unicode="&#x4e0d;" 
d="M245 30l-103 87v19l103 -86v-20zM137 132v-155h-16v155h16zM156 165l-139 -136v21l118 115h-116v15h223v-15h-86z" />
    <glyph glyph-name="uni4E0E" unicode="&#x4e0e;" 
d="M124 -4h88l7 99h-183l14 101h16l-3 -22h166v-16h-168l-7 -48h181v-12l-8 -117h-88zM20 52h178v-15h-178v15z" />
    <glyph glyph-name="uni4E10" unicode="&#x4e10;" 
d="M13 198h236v-19h-110v-36h90v-19h-90v-39h97q0 -8 -1 -22q-2 -34 -3 -47q-2 -45 -50 -44q-18 -1 -55 -1q0 9 -4 22h56q32 -2 32 23q1 7 3 43l1 7h-184l9 99h21l-8 -80h66v94h-106v19z" />
    <glyph glyph-name="uni4E11" unicode="&#x4e11;" 
d="M31 187h195l-9 -189h29v-16h-227v16h61l9 88h-56v14h57l8 73h-67v14zM105 86l-10 -88h106l5 88h-101zM209 173h-95l-8 -73h101z" />
    <glyph glyph-name="uni4E13" unicode="&#x4e13;" 
d="M60 19l83 -14l52 47h-144l19 50h-53v15h59l12 32h-61v15h67l13 34h17l-13 -34h122v-15h-128l-13 -32h151v-15h-156l-14 -35h161l-71 -65l28 -4v-16l-131 21v16z" />
    <glyph glyph-name="uni4E14" unicode="&#x4e14;" 
d="M45 188h168v-188h30v-15h-229v15h31v188zM197 52h-136v-52h136v52zM61 125h136v48h-136v-48zM61 67h136v43h-136v-43z" />
    <glyph glyph-name="uni4E15" unicode="&#x4e15;" 
d="M21 197h225v-20h-89q-47 -73 -136 -130q-7 10 -14 17q91 55 126 113h-112v20zM14 3h238v-19h-238v19zM122 138h20v-130h-20v130zM243 50q-55 38 -90 60l13 15q64 -40 92 -59z" />
    <glyph glyph-name="uni4E16" unicode="&#x4e16;" 
d="M16 135h22v56h16v-56h55v57h16v-57h83v57h16v-57h28v-15h-28v-67h-115v67h-55v-118h188v-15h-204v133h-22v15zM125 68h83v52h-83v-52z" />
    </font>
</defs>
</svg>
